<svg width="24" height="24" viewBox="0 0 24 24" fill="none" xmlns="http://www.w3.org/2000/svg"><path fill-rule="evenodd" clip-rule="evenodd" d="M10.2578 17.8448C10.2578 16.89 11.0429 16.105 11.9977 16.105C12.9525 16.105 13.7375 16.89 13.7375 17.8448C13.7375 18.7996 12.9525 19.5847 11.9977 19.5847C11.0429 19.5847 10.2578 18.7996 10.2578 17.8448Z" fill="#AFAFAF"/><path fill-rule="evenodd" clip-rule="evenodd" d="M11.9976 15.105C11.1913 15.105 10.5548 14.5534 10.5548 13.6622C10.5548 12.9832 10.7245 12.3467 11.4884 11.498L12.6341 10.2037C13.2707 9.50353 13.4828 9.01553 13.4828 8.48508C13.4828 7.65759 12.9312 7.08471 12.0825 7.08471C11.2974 7.08471 10.8731 7.48785 10.5972 8.12438C10.3002 8.76091 9.79095 9.05796 9.23928 9.05796C8.43301 9.05796 7.88135 8.54873 7.88135 7.76368C7.88135 7.59393 7.92378 7.38176 7.98744 7.1908C8.47545 5.66312 9.98191 4.53857 12.1461 4.53857C14.671 4.53857 16.4109 6.19356 16.4109 8.37899C16.4109 9.4611 16.0714 10.2886 15.2651 11.1585L13.9496 12.6225C13.5889 13.0257 13.4616 13.3227 13.4616 13.6622C13.4616 14.5534 12.7827 15.105 11.9976 15.105Z" fill="#AFAFAF"/><rect x="1" y="1" width="22" height="22" rx="11" stroke="#AFAFAF" stroke-width="2"/></svg>