<svg width="24" height="24" viewBox="0 0 24 24" fill="none" xmlns="http://www.w3.org/2000/svg"><rect x="1" y="9" width="22" height="14" rx="2" stroke="#AFAFAF" stroke-width="2"/><path fill-rule="evenodd" clip-rule="evenodd" d="M12 0C8.13401 0 5 3.13401 5 7V9H7V7C7 4.23858 9.23858 2 12 2C14.7614 2 17 4.23858 17 7V9H19V7C19 3.13401 15.866 0 12 0Z" fill="#AFAFAF"/><path d="M10 15C10 13.8954 10.8954 13 12 13C13.1046 13 14 13.8954 14 15V17C14 18.1046 13.1046 19 12 19C10.8954 19 10 18.1046 10 17V15Z" fill="#AFAFAF"/></svg>