<svg version="1.2" xmlns="http://www.w3.org/2000/svg" viewBox="0 0 800 456" width="800" height="456"><style>tspan{white-space:pre}.a{fill:#6f4ea1}.b{fill:#9069cd}.c{fill:#e58d80}.d{fill:#71513f}.e{fill:#ffb5a1}.f{fill:#ff9d8a}.g{fill:none;stroke:#856959;stroke-linecap:round;stroke-width:10.5}.h{opacity:.2;fill:#fff}.i{fill:none;stroke:#fff;stroke-linecap:round;stroke-width:4.5}.j{fill:none;stroke:#fff;stroke-linecap:round;stroke-width:3.9}.k{fill:none;stroke:#e99589;stroke-linecap:round;stroke-width:6.3}.l{fill:#00a0f5}.m{fill:#7ccefa}.n{fill:#faa519}.o{fill:#fbc01a}.p{fill:#e3e4e5}.q{fill:#fff}.r{fill:#ff6464}.s{fill:#ff9494}.t{fill:#ef4849}.u{fill:#edebf0}.v{fill:#e8e6ec}.w{fill:none;stroke:#edebf0;stroke-width:2.8}.x{fill:none;stroke:#00a0f5;stroke-linecap:round;stroke-linejoin:round;stroke-width:9.5}.y{fill:#dfe0ec}.z{font-size: 80px;fill: #9069cd;font-weight: bold;font-family: "Feather"}.A{font-size: 80px;fill: #00a0f5;font-weight: bold;font-family: "Feather"}.B{fill:none;stroke:#9069cd;stroke-width:8}.C{fill:#1f2b37}</style><path className="a" d="m423.6 303.8v99.6c0 13.2-10.8 24-24.1 24h-144.9c-13.3 0-24.1-10.8-24.1-24v-99.3c0-23.6 16.8-43.8 40-48l56.8-8.5 56.6 8.4c23 4.3 39.7 24.3 39.7 47.8z"/><path className="b" d="m300.9 255.7h50.6c4 0 7.4 3.2 7.4 7.4v34.5c0 6.7-7.4 10.7-13 7.1l-16.5-10.5c-2.1-1.4-4.8-1.4-6.9 0l-16.2 10.5c-5.6 3.6-13-0.4-13-7.1v-34.5c0-4.1 3.4-7.4 7.6-7.4z"/><path className="b" d="m327 318.8c-3.5 0-6.4-2.8-6.4-6.3 0-3.5 2.9-6.4 6.4-6.4 3.5 0 6.3 2.9 6.3 6.4 0 3.5-2.8 6.3-6.3 6.3z"/><path className="b" d="m327 354.9c-3.5 0-6.4-2.8-6.4-6.3 0-3.5 2.9-6.4 6.4-6.4 3.5 0 6.3 2.9 6.3 6.4 0 3.5-2.8 6.3-6.3 6.3z"/><path className="b" d="m327 390.9c-3.5 0-6.4-2.9-6.4-6.4 0-3.5 2.9-6.3 6.4-6.3 3.5 0 6.3 2.8 6.3 6.3 0 3.5-2.8 6.4-6.3 6.4z"/><path className="c" d="m318.6 286.4l-14.8-16.5c-2-2.4-3.2-5.5-3.2-8.5v-55.6h50.7v55.6c0 3-1 6.1-3.2 8.5l-14.8 16.5c-3.9 4.1-10.7 4.1-14.7 0z"/><path className="d" d="m363.8 125.5c-3.2-1.5-4.6-5.2-3-8.5l17.1-37c1.5-3.2 5.2-4.6 8.5-3.1 3.2 1.6 4.6 5.3 3.1 8.5l-17.2 37c-1.4 3.1-5.2 4.5-8.5 3.1z"/><path className="d" d="m359.1 119.4c-2-3-1.4-7 1.5-9l33.3-23.6c3-2 7-1.4 9 1.5 2 3 1.4 7-1.5 9l-33.4 23.6c-2.8 2-6.8 1.4-8.9-1.5z"/><path className="d" d="m261.8 171.2c-9.7 0-17.6-7.8-17.6-17.6 0-9.7 7.9-17.6 17.6-17.6 9.8 0 17.6 7.9 17.6 17.6 0 9.8-7.8 17.6-17.6 17.6z"/><path className="d" d="m379.4 109.6c0 39.4-31.8 62.7-71.1 62.7-39.4 0-71.2-23.3-71.2-62.7 0-39.3 31.8-71.1 71.2-71.1 39.3 0 71.1 31.8 71.1 71.1z"/><path className="e" d="m325.4 290.8c-27.9 0-50.5-22.6-50.5-50.4v-59.1c0-13.2 10.7-23.8 23.8-23.8h53.4c13.1 0 23.8 10.6 23.8 23.8v59.1c0.1 27.8-22.5 50.4-50.5 50.4z"/><path className="f" d="m261.5 217.7c-11.9 0-21.4-9.6-21.4-21.5 0-11.8 9.5-21.4 21.4-21.4 11.9 0 21.5 9.6 21.5 21.4 0 11.9-9.6 21.5-21.5 21.5z"/><path className="f" d="m389 217.7c-11.9 0-21.4-9.6-21.4-21.5 0-11.8 9.5-21.4 21.4-21.4 11.9 0 21.5 9.6 21.5 21.4 0 11.9-9.6 21.5-21.5 21.5z"/><path className="e" d="m358.4 244.2h-66.8c-20.7 0-37.5-16.8-37.5-37.5v-60.2c0-39.2 31.8-40.4 71-40.4 39.2 0 71 21.4 71 60.5v40c0 20.8-16.8 37.6-37.7 37.6z"/><path className="f" d="m327.1 233h-4.8q-0.8 0-1.6-0.4-0.7-0.3-1.3-0.9-0.6-0.5-0.9-1.3-0.3-0.8-0.3-1.6v-31.6q0-0.9 0.3-1.6 0.3-0.8 0.9-1.4 0.6-0.6 1.3-0.9 0.8-0.3 1.6-0.3h4.8q0.8 0 1.6 0.3 0.8 0.3 1.4 0.9 0.5 0.6 0.9 1.4 0.3 0.7 0.3 1.6v31.6q0 0.8-0.3 1.6-0.4 0.8-0.9 1.3-0.6 0.6-1.4 0.9-0.8 0.4-1.6 0.4z"/><path className="f" d="m336.2 229.3c0 2-1.7 3.7-3.7 3.7h-15c-2 0-3.7-1.7-3.7-3.7 0-2.1 1.7-3.7 3.7-3.7h15c2 0 3.7 1.6 3.7 3.7z"/><path className="d" d="m394.1 190.7l-10.8-58.2h21c0 24.1-3.7 43-6.2 58.2-0.3 2.1-3.5 2.1-4 0z"/><path className="g" d="m363.7 165.5c-4.6-1.5-11.7-3.1-21.5-3.1"/><path className="g" d="m285.6 165.5c4.6-1.5 11.7-3.1 21.4-3.1"/><path className="d" d="m404.4 142.2l-10.3 25.8c-24.2-10.2-23.3-44.6-23.3-44.6-8-5.1-18.5-2.3-27.2 1.4-25.6 10.9-45.4 28.2-75.8 28.2-7.4 0-14.5-1.7-21.1-7.1 2.9-6.9 4.6-14.8 6.3-20.7 2.5-8.6 5.1-17.1 7-25.9 0.7-3.7 1.4-7.4 1.7-11.1 11.2-16.5 27.8-30.1 47.4-33.8 15.5-3.1 32.2 0.4 45.2 9.5 12.9 9 22 23.5 24.7 39.1 0 0 27.8-13.4 25.4 39.2z"/><path className="h" d="m353 218.1c-12.9 0-23.4-10.4-23.4-23.4 0-13 10.5-23.5 23.4-23.5 13 0 23.5 10.5 23.5 23.5 0 13-10.5 23.4-23.5 23.4z"/><path className="h" d="m296.6 218.1c-13 0-23.5-10.4-23.5-23.4 0-13 10.5-23.5 23.4-23.5 13 0 23.5 10.5 23.5 23.5 0 13-10.5 23.4-23.5 23.4z"/><path className="c" d="m303.3 217.5q-1.3 0-2.5-0.5-1.2-0.5-2.2-1.4-0.9-0.9-1.4-2.2-0.5-1.2-0.5-2.5v-12.8q0-1.3 0.5-2.6 0.5-1.2 1.4-2.1 1-1 2.2-1.5 1.2-0.5 2.5-0.5 1.4 0 2.6 0.5 1.2 0.5 2.1 1.5 1 0.9 1.5 2.1 0.5 1.3 0.5 2.6v12.8c-0.2 3.7-3.1 6.6-6.7 6.6zm42.6 0q-1.3 0-2.5-0.5-1.2-0.5-2.2-1.4-0.9-0.9-1.4-2.2-0.5-1.2-0.5-2.5v-12.8q0-1.3 0.5-2.6 0.5-1.2 1.4-2.1 1-1 2.2-1.5 1.2-0.5 2.5-0.5 1.4 0 2.6 0.5 1.2 0.5 2.1 1.5 1 0.9 1.5 2.1 0.5 1.3 0.5 2.6v12.8c-0.2 3.7-3.1 6.6-6.7 6.6z"/><path className="i" d="m295.6 220c-12.8 0-23.1-10.4-23.1-23.2 0-12.8 10.3-23.1 23.1-23.1 12.8 0 23.2 10.3 23.2 23.1 0 12.8-10.4 23.2-23.2 23.2z"/><path className="i" d="m352.3 220c-12.8 0-23.2-10.4-23.2-23.2 0-12.8 10.4-23.1 23.2-23.1 12.8 0 23.1 10.3 23.1 23.1 0 12.8-10.3 23.2-23.1 23.2z"/><path className="j" d="m318.3 190.8h8.8"/><path className="i" d="m376 192.4l24.9-16.4"/><path className="i" d="m251.6 176l20.3 16.4"/><path className="k" d="m348.6 239.3c-3.1 4.6-9 10-20.3 10.9-11.4 1-18.8-3.5-23-7.5"/><path className="e" d="m318.6 427.6h-96.4c-18.7 0-31.8-18.4-26-36.1l15.3-45.1 38.1 13-9.4 27.9h45.7c18.1 0 32.7 14.7 32.7 32.7z"/><path className="l" d="m613.6 358.4v23.8c0 3.3-2.6 5.7-5.7 5.7h-115c-3.3 0-5.7-2.6-5.7-5.7v-23.8c0-3.2 2.6-5.7 5.7-5.7h115c3.2 0 5.7 2.7 5.7 5.7z"/><path className="m" d="m503.4 352.7h6.3v35.2h-6.3zm19.1 0h6.3v35.2h-6.3z"/><path className="n" d="m483 346.9v-20.9c0-3.1 2.5-5.7 5.7-5.7h73.3v32.3h-73.3c-3.2 0-5.7-2.6-5.7-5.7z"/><path className="o" d="m547.2 352.6h-12.2c-3.1 0-5.7-2.5-5.7-5.7v-20.9c0-3.1 2.5-5.7 5.7-5.7h12.2c-3.1 0-5.7 2.5-5.7 5.7v20.9c0 3.1 2.6 5.7 5.7 5.7z"/><path className="p" d="m561.6 324.6h64.6v24h-64.6z"/><path className="q" d="m561.6 333.1h64.6v7h-64.6z"/><path className="o" d="m628.1 352.6h-66.1c-2.7 0-5.1-2.3-5.1-5.1v-22.1c0-2.8 2.4-5.1 5.1-5.1h66.1c1.1 0 1.8 0.9 1.8 1.9v2.1c0 1.1-0.9 1.9-1.8 1.9h-65.1v20.4h65.1c1.1 0 1.8 0.9 1.8 1.8v2.2c0 1.1-0.7 2-1.8 2z"/><path className="r" d="m615.3 426.8h-74.7v-38.9h74.7c2.5 0 5.1 0.5 7.4 1.5 2.4 1 4.6 2.4 6.4 4.2 1.8 1.8 3.2 4 4.2 6.3 0.9 2.4 1.4 4.9 1.4 7.5 0 10.8-8.8 19.4-19.4 19.4z"/><path className="s" d="m611.6 389.4c2.4 1 4.5 2.4 6.3 4.2 1.9 1.8 3.3 4 4.3 6.3 0.9 2.4 1.4 4.9 1.4 7.5 0 2.5-0.5 5.1-1.4 7.4-1 2.4-2.4 4.5-4.3 6.4-1.8 1.8-3.9 3.2-6.3 4.2-2.3 0.9-4.9 1.4-7.4 1.4h-6.4c2.6 0 5.1-0.5 7.5-1.4 2.4-1 4.5-2.4 6.3-4.2 1.8-1.9 3.3-4 4.2-6.4 1-2.3 1.5-4.9 1.5-7.4 0-2.6-0.5-5.1-1.5-7.5-0.9-2.3-2.4-4.5-4.2-6.3-1.8-1.8-3.9-3.2-6.3-4.2-2.4-1-4.9-1.5-7.5-1.5h6.4c2.5 0 5.1 0.5 7.4 1.5z"/><path className="s" d="m597.1 389.4c2.4 1 4.5 2.4 6.3 4.2 1.8 1.8 3.3 4 4.3 6.3 0.9 2.4 1.4 4.9 1.4 7.5 0 2.5-0.5 5.1-1.4 7.4-1 2.4-2.5 4.5-4.3 6.4-1.8 1.8-3.9 3.2-6.3 4.2-2.3 0.9-4.9 1.4-7.4 1.4h-6.4c2.6 0 5.1-0.5 7.5-1.4 2.4-1 4.5-2.4 6.3-4.2 1.8-1.9 3.2-4 4.2-6.4 1-2.3 1.5-4.9 1.5-7.4 0-2.6-0.5-5.1-1.5-7.5-1-2.3-2.4-4.5-4.2-6.3-1.8-1.8-3.9-3.2-6.3-4.2-2.4-1-4.9-1.5-7.5-1.5h6.4c2.5 0 5.1 0.5 7.4 1.5z"/><path className="q" d="m543.7 420h-67.8v-25.4h67.8c7.1 0 12.8 5.7 12.8 12.8 0 1.7-0.3 3.3-1 4.9-0.6 1.5-1.6 3-2.8 4.1-1.2 1.2-2.6 2.2-4.1 2.8-1.6 0.7-3.3 1-4.9 1z"/><path className="t" d="m543.7 420.2c7.4 0 13.4-6.5 12.6-14.1-0.6-6.6-6.6-11.4-13.3-11.4h-70.6c-1.3 0-2.4-1.1-2.4-2.3v-2.2c0-1.2 1.1-2.3 2.4-2.3h70.5c10.3 0 19.4 7.7 20.2 18.2 0.8 11.5-8.3 21-19.4 21h-71.3c-1.3 0-2.4-1-2.4-2.3v-2.3c0-1.2 1.1-2.3 2.4-2.3z"/><path className="u" d="m556.5 407.5c0 1.4-0.3 2.8-0.6 4.2h-79.8v-8.2h79.8c0.3 1.1 0.6 2.5 0.6 4z"/><path className="n" d="m647.4 446.6h-508.6c-1.3 0-2.6-0.3-3.8-0.8-1.3-0.5-2.4-1.2-3.3-2.2-0.9-0.9-1.7-2-2.2-3.2-0.5-1.2-0.7-2.5-0.7-3.8 0-1.4 0.2-2.7 0.7-3.9 0.5-1.2 1.3-2.3 2.2-3.3 0.9-0.9 2-1.6 3.3-2.1 1.2-0.5 2.5-0.8 3.8-0.8h508.6c1.3 0 2.6 0.3 3.8 0.8 1.2 0.5 2.4 1.2 3.3 2.2 0.9 0.9 1.7 2 2.2 3.2 0.5 1.2 0.7 2.5 0.7 3.8 0 1.4-0.2 2.7-0.7 3.9-0.5 1.2-1.3 2.3-2.2 3.2-0.9 1-2.1 1.7-3.3 2.2-1.2 0.5-2.5 0.8-3.8 0.8z"/><path className="a" d="m251.6 285.6l-8.5 65.3-29.9-10 20.4-53.9 0.4-1.4z"/><path className="b" d="m249 361.5l-38.4-12.6 3.5-10.5 38.5 12.8z"/><path className="e" d="m335.6 427.6v-7.6c0-18 14.7-32.7 32.7-32.7h45.7l-9.4-27.9 38.1-13 15.3 45.1c5.9 17.7-7.3 36.1-25.9 36.1h-96.3z"/><path className="a" d="m420.2 285.6l0.4 1.4 20.6 53.9-30.1 10-8.4-65.3z"/><path className="b" d="m401.8 351.2l38.4-12.8 3.6 10.5-38.4 12.6z"/><path className="v" d="m429 406.9v12.5l-92.8 3.1-8.5-5.2-8.5 5.2-92.7-3.1v-12.5c0-2.6 1.8-4.9 4.5-5.4 13.4-2.8 54-10.9 71.3-10.9 15.2 0 24.2 7.5 24.2 7.5 0 0 11.3-7.5 26.7-7.5 17.3 0 57.9 8.1 71.3 10.9 2.5 0.6 4.3 2.9 4.5 5.4z"/><path className="q" d="m429 406.9v12.5l-92.8 3.1-8.5-5.2-8.5 5.2-92.7-3.1v-12.5c0-2.6 1.8-4.9 4.5-5.4 13.4-2.8 54-10.9 71.3-10.9 15.2 0 24.2 7.5 24.2 7.5 0 0 11.3-7.5 26.7-7.5 17.3 0 57.9 8.1 71.3 10.9 2.5 0.6 4.3 2.9 4.5 5.4z"/><path className="w" d="m224.6 410c13.5-2.8 59.4-11.1 76.7-11.1 15.3 0 24.3 6.6 25.5 7.2 1.1-0.7 10-7.2 25.5-7.2 17.3 0 62.9 8.3 76.4 11.1"/><path className="w" d="m224 416.2c13.4-2.8 59.4-9.6 76.7-9.6 15.3 0 24.3 4.9 25.5 5.6 1.1-0.7 10-5.6 25.5-5.6 17.2 0 64.5 6.8 77.9 9.6"/><path className="x" d="m224.6 422.5h94.5c0 0 1.7-5.1 6.9-5.1 5.4 0 6.8 5.1 6.8 5.1h97.7"/><path className="y" d="m495.2 223.7c-15.4 0-27.8-12.4-27.8-27.8 0-15.3 12.4-27.8 27.8-27.8 15.4 0 27.8 12.5 27.8 27.8 0 15.4-12.4 27.8-27.8 27.8z"/><path className="y" d="m445.8 239.9c-9.1 0-16.5-7.4-16.5-16.5 0-9.1 7.4-16.5 16.5-16.5 9.1 0 16.5 7.4 16.5 16.5 0 9.1-7.4 16.5-16.5 16.5z"/><path className="y" d="m564.3 223.5c-59.3 0-107.2-47.9-107.2-107.2 0-59.3 47.9-107.3 107.2-107.3 59.4 0 107.3 48 107.3 107.3 0 59.3-47.9 107.2-107.3 107.2z"/><text style="transform:matrix(1,0,0,1,492,139)" ><tspan x="0" y="0" className="z">{
</tspan></text><text style="transform:matrix(1,0,0,1,563,180)" ><tspan x="0" y="0" className="A">)
</tspan></text><path fill-rule="evenodd" className="l" d="m549.3 95.5c-4 0-7.1-2.7-7.1-7.2 0-3.3 0.8-6.5 4.6-10.7l5.6-6.5c3.1-3.4 4.2-5.9 4.2-8.5 0-4.1-2.7-7-6.9-7-3.9 0-6 2.1-7.3 5.2-1.5 3.2-4 4.7-6.7 4.7-4 0-6.7-2.6-6.7-6.5 0-0.8 0.2-1.9 0.5-2.8 2.4-7.6 9.8-13.2 20.5-13.2 12.4 0 21 8.2 21 19.1 0 5.4-1.7 9.5-5.6 13.8l-6.5 7.3c-1.8 2-2.4 3.4-2.4 5.1 0 4.5-3.4 7.2-7.2 7.2zm-8.6 12.9c0-4.8 3.9-8.7 8.6-8.7 4.7 0 8.5 3.9 8.5 8.7 0 4.7-3.8 8.6-8.5 8.6-4.7 0-8.6-3.9-8.6-8.6z"/><path fill-rule="evenodd" className="q" d="m599.3 106.2c2.3 0.7 4.2 2.3 5.4 4.4 1.1 2.1 1.3 4.6 0.6 6.9-0.7 2.3-2.3 4.2-4.4 5.3-2.1 1.1-4.5 1.3-6.8 0.6-2.3-0.6-4.2-2.2-5.3-4.3-1.2-2.1-1.4-4.6-0.7-6.9 0.7-2.3 2.3-4.2 4.4-5.3 2.1-1.1 4.6-1.4 6.8-0.7zm9.4-52.5q-1.1-0.3-2.1-0.2-1.1 0.1-2 0.7-0.9 0.5-1.5 1.4-0.6 0.8-0.8 1.9l-7.3 37.5q-0.2 0.9 0 1.8 0.1 0.9 0.6 1.7 0.5 0.8 1.2 1.4 0.7 0.6 1.6 0.8l4.8 1.5q0.9 0.3 1.8 0.2 0.9-0.1 1.8-0.5 0.8-0.4 1.4-1 0.7-0.7 1.1-1.5l14.8-35.2q0.5-1 0.4-2.1 0-1-0.4-2-0.5-1-1.3-1.7-0.8-0.6-1.8-1c0 0-12.3-3.7-12.3-3.7z"/><path className="B" d="m620 136c5.5 0 10 4.5 10 10 0 5.5-4.5 10-10 10-5.5 0-10-4.5-10-10 0-5.5 4.5-10 10-10z"/><path fill-rule="evenodd" className="q" d="m548.1 162.6c1.3 0 2.6 0.3 3.8 0.9 1.2 0.7 2.1 1.6 2.9 2.7 0.7 1.1 1.1 2.4 1.2 3.7 0.1 1.3-0.2 2.7-0.7 3.9q-0.3 0.7-0.8 1.3l-0.1 0.2q-0.2 0.2-0.5 0.5-0.2 0.2-0.4 0.5-0.3 0.2-0.5 0.4-0.3 0.2-0.5 0.4l-6.4 5.6q-0.2 0.2-0.6 0.3-0.3 0-0.6-0.1-0.4-0.2-0.5-0.5-0.2-0.3-0.2-0.7l0.3-4.1c-1.6-0.7-2.9-2-3.7-3.6-0.8-1.7-1-3.5-0.6-5.2 0.4-1.8 1.4-3.4 2.8-4.5 1.4-1.1 3.1-1.7 4.9-1.7zm0-22.6c2.1 0 4.1 0.8 5.6 2.3 1.5 1.5 2.3 3.5 2.3 5.6 0 2.1-0.8 4.1-2.3 5.6-1.5 1.5-3.5 2.3-5.6 2.3h-0.2c-2.1 0-4.1-0.8-5.6-2.3-1.5-1.5-2.3-3.5-2.3-5.6 0-2.1 0.8-4.1 2.3-5.6 1.5-1.5 3.5-2.3 5.6-2.3z"/><path className="b" d="m293.8 359.2l-10.7 2.8q-0.8 0.2-1.7 0.3-0.9 0.2-1.8 0.2-0.9 0-1.8-0.2-0.9-0.1-1.8-0.3l-9.7-2.8c-1.5-0.4-2.6-1.8-2.6-3.4v-19.1c0-2 1.5-3.6 3.5-3.6h25.6c2.1 0 3.6 1.6 3.6 3.6v19.1c0 1.7-1.1 3.1-2.6 3.4z"/><path className="C" d="m282.5 333.1h-8.8v-17.6c0-2.4 2-4.3 4.3-4.3 2.5 0 4.4 2 4.4 4.3v17.6z"/><path className="C" d="m275.4 342.9q-0.3 0-0.6-0.2-0.4-0.1-0.6-0.3-0.2-0.3-0.4-0.6-0.1-0.3-0.1-0.6v-10.2h3.4v10.2c0 0.9-0.8 1.7-1.7 1.7z"/></svg>