<svg version="1.2" xmlns="http://www.w3.org/2000/svg" viewBox="0 0 288 164" width="288" height="164">
	<title>communication-svg</title>
	<defs>
		<clipPath clipPathUnits="userSpaceOnUse" id="cp1">
			<path d="m68 104c0-2.76 2.24-5 5-5 2.76 0 5 2.24 5 5v27c0 2.76-2.24 5-5 5-2.76 0-5-2.24-5-5z"/>
		</clipPath>
		<clipPath clipPathUnits="userSpaceOnUse" id="cp2">
			<path d="m136.65 57.27l10.16 2.58q0.4 0.1 0.72 0.35 0.33 0.25 0.53 0.61 0.2 0.35 0.24 0.76 0.05 0.41-0.07 0.8l-0.72 2.37q-0.14 0.48-0.44 0.89-0.29 0.41-0.7 0.7-0.41 0.29-0.9 0.43-0.48 0.13-0.98 0.11l-6.26-0.32q-0.94-0.05-1.79-0.47-0.84-0.41-1.46-1.13-0.61-0.71-0.89-1.61-0.28-0.9-0.18-1.84l0.26-2.5q0.05-0.43 0.27-0.81 0.22-0.37 0.57-0.62 0.36-0.25 0.79-0.33 0.43-0.08 0.85 0.03z"/>
		</clipPath>
		<clipPath clipPathUnits="userSpaceOnUse" id="cp3">
			<path d="m136.65 57.27l10.16 2.58q0.4 0.1 0.72 0.35 0.33 0.25 0.53 0.61 0.2 0.35 0.24 0.76 0.05 0.41-0.07 0.8l-0.72 2.37q-0.14 0.48-0.44 0.89-0.29 0.41-0.7 0.7-0.41 0.29-0.9 0.43-0.48 0.13-0.98 0.11l-6.26-0.32q-0.94-0.05-1.79-0.47-0.84-0.41-1.46-1.13-0.61-0.71-0.89-1.61-0.28-0.9-0.18-1.84l0.26-2.5q0.05-0.43 0.27-0.81 0.22-0.37 0.57-0.62 0.36-0.25 0.79-0.33 0.43-0.08 0.85 0.03z"/>
		</clipPath>
		<clipPath clipPathUnits="userSpaceOnUse" id="cp4">
			<path d="m188.6 77.81l0.22 0.72c0.35 1.15 0.47 2.35 0.35 3.54-0.11 1.19-0.46 2.35-1.02 3.41-0.56 1.06-1.33 1.99-2.25 2.76-0.93 0.76-1.99 1.33-3.14 1.68l-29.37 8.98q-0.73 0.22-1.49 0.15-0.76-0.07-1.44-0.43-0.67-0.36-1.16-0.95-0.48-0.59-0.71-1.32l-3.31-10.82q-0.22-0.74-0.15-1.5 0.08-0.76 0.44-1.43 0.36-0.67 0.94-1.16 0.59-0.48 1.32-0.71l29.38-8.98c1.14-0.35 2.35-0.47 3.54-0.36 1.19 0.12 2.35 0.47 3.41 1.03 1.05 0.56 1.99 1.33 2.75 2.25 0.76 0.92 1.34 1.99 1.69 3.14z"/>
		</clipPath>
		<clipPath clipPathUnits="userSpaceOnUse" id="cp5">
			<path d="m193.61 73.14c1.78-0.54 3.67 0.46 4.21 2.24 0.55 1.78-0.46 3.67-2.24 4.22l-7.21 2.2c-1.79 0.55-3.67-0.46-4.22-2.24-0.54-1.78 0.46-3.67 2.24-4.21z"/>
		</clipPath>
		<clipPath clipPathUnits="userSpaceOnUse" id="cp6">
			<path d="m236.48 84.52l11.85 0.98q0.28 0.02 0.53 0.14 0.25 0.13 0.44 0.33 0.2 0.21 0.3 0.47 0.1 0.26 0.1 0.55l0.01 2.58q0 0.75-0.3 1.43-0.31 0.67-0.88 1.16-0.56 0.49-1.28 0.7-0.71 0.2-1.45 0.09l-7.49-1.12q-0.72-0.11-1.35-0.46-0.64-0.35-1.11-0.9-0.47-0.54-0.73-1.22-0.25-0.68-0.25-1.4l-0.01-1.83q0-0.32 0.12-0.61 0.13-0.29 0.36-0.5 0.23-0.21 0.53-0.32 0.3-0.1 0.61-0.07z"/>
		</clipPath>
		<clipPath clipPathUnits="userSpaceOnUse" id="cp7">
			<path d="m236.48 84.52l11.85 0.98q0.28 0.02 0.53 0.14 0.25 0.13 0.44 0.33 0.2 0.21 0.3 0.47 0.1 0.26 0.1 0.55l0.01 2.58q0 0.75-0.3 1.43-0.31 0.67-0.88 1.16-0.56 0.49-1.28 0.7-0.71 0.2-1.45 0.09l-7.49-1.12q-0.72-0.11-1.35-0.46-0.64-0.35-1.11-0.9-0.47-0.54-0.73-1.22-0.25-0.68-0.25-1.4l-0.01-1.83q0-0.32 0.12-0.61 0.13-0.29 0.36-0.5 0.23-0.21 0.53-0.32 0.3-0.1 0.61-0.07z"/>
		</clipPath>
		<clipPath clipPathUnits="userSpaceOnUse" id="cp8">
			<path d="m153.15 111q0.26-1.27 0.93-2.38 0.67-1.11 1.68-1.93 1-0.82 2.22-1.25 1.22-0.44 2.52-0.44h4q0.42 0 0.83 0.04 0.41 0.05 0.82 0.14 0.41 0.09 0.8 0.23 0.39 0.13 0.77 0.31 0.53-0.64 1.18-1.14 0.65-0.51 1.4-0.87 0.75-0.35 1.56-0.53 0.81-0.18 1.64-0.18h7q1.49 0 2.87 0.57 1.38 0.57 2.43 1.62 1.06 1.06 1.63 2.44 0.57 1.37 0.57 2.87 0 0-0.01 0v0.5h1.01q0.99 0 1.91 0.38 0.92 0.38 1.63 1.08 0.7 0.71 1.08 1.63 0.38 0.92 0.38 1.91h-48q0-0.99 0.38-1.91 0.38-0.92 1.08-1.63 0.71-0.7 1.63-1.08 0.92-0.38 1.91-0.38z"/>
		</clipPath>
		<clipPath clipPathUnits="userSpaceOnUse" id="cp9">
			<path d="m71 119h3q0.99 0 1.91 0.38 0.92 0.38 1.63 1.08 0.7 0.71 1.08 1.63 0.38 0.92 0.38 1.91v1h-30v-1q0-0.99 0.38-1.91 0.38-0.92 1.08-1.63 0.71-0.7 1.63-1.08 0.92-0.38 1.91-0.38 0-0.8 0.3-1.53 0.31-0.73 0.87-1.3 0.57-0.56 1.3-0.87 0.73-0.3 1.53-0.3h9q0.8 0 1.53 0.3 0.73 0.31 1.3 0.87 0.56 0.57 0.87 1.3 0.3 0.73 0.3 1.53z"/>
		</clipPath>
		<clipPath clipPathUnits="userSpaceOnUse" id="cp10">
			<path d="m71 119h3q0.99 0 1.91 0.38 0.92 0.38 1.63 1.08 0.7 0.71 1.08 1.63 0.38 0.92 0.38 1.91v1h-30v-1q0-0.99 0.38-1.91 0.38-0.92 1.08-1.63 0.71-0.7 1.63-1.08 0.92-0.38 1.91-0.38 0-0.8 0.3-1.53 0.31-0.73 0.87-1.3 0.57-0.56 1.3-0.87 0.73-0.3 1.53-0.3h9q0.8 0 1.53 0.3 0.73 0.31 1.3 0.87 0.56 0.57 0.87 1.3 0.3 0.73 0.3 1.53z"/>
		</clipPath>
		<clipPath clipPathUnits="userSpaceOnUse" id="cp11">
			<path d="m71 119h3q0.99 0 1.91 0.38 0.92 0.38 1.63 1.08 0.7 0.71 1.08 1.63 0.38 0.92 0.38 1.91v1h-30v-1q0-0.99 0.38-1.91 0.38-0.92 1.08-1.63 0.71-0.7 1.63-1.08 0.92-0.38 1.91-0.38 0-0.8 0.3-1.53 0.31-0.73 0.87-1.3 0.57-0.56 1.3-0.87 0.73-0.3 1.53-0.3h9q0.8 0 1.53 0.3 0.73 0.31 1.3 0.87 0.56 0.57 0.87 1.3 0.3 0.73 0.3 1.53z"/>
		</clipPath>
	</defs>
	<style>
		.s0 { fill: #1cb0f6 } 
		.s1 { fill: #ffb59f } 
		.s2 { fill: #ff9d88 } 
		.s3 { fill: #5ccbff } 
		.s4 { fill: #d8d8d8 } 
		.s5 { fill: #a56644 } 
		.s6 { fill: #e78d7c } 
		.s7 { fill: #9069cd } 
		.s8 { fill: #ce82ff } 
		.s9 { fill: #ce82ff;stroke: #dca6ff;stroke-width: 3 } 
		.s10 { fill: #e79b7f } 
		.s11 { fill: #835032 } 
		.s12 { fill: none;stroke: #ce82ff;stroke-width: 6 } 
		.s13 { fill: #e08462 } 
		.s14 { fill: #bc7257 } 
		.s15 { fill: #a34242 } 
		.s16 { fill: #ffffff } 
		.s17 { fill: #d25151 } 
		.s18 { fill: #666161 } 
		.s19 { fill: #ffce8e } 
		.s20 { fill: #c85252 } 
		.s21 { fill: none;stroke: #887a7a;stroke-linecap: round;stroke-width: 2.6 } 
		.s22 { fill: #51af13 } 
		.s23 { fill: #78c800 } 
		.s24 { fill: #a66740 } 
		.s25 { fill: #2b2b2b } 
		.s26 { fill: #f49000 } 
		.s27 { fill: #812b2b } 
		.s28 { fill: #8e4d27 } 
		.s29 { fill: #7c482a } 
		.s30 { fill: #ffd300 } 
		.s31 { fill: none;stroke: #ffb400;stroke-width: 2 } 
		.s32 { fill: #923838 } 
		.s33 { fill: none;stroke: #ffd300;stroke-linecap: round;stroke-width: 3 } 
		.s34 { fill: #bbf2ff } 
		.s35 { fill: #bad3db } 
		.s36 { fill: #dbe7eb } 
		.s37 { fill: #cd7900 } 
	</style>
	<g id="Layer">
		<path id="Layer" className="s0" d="m37.5 93h7c8 0 14.5 6.5 14.5 14.5v25.5q0 0.8-0.3 1.5-0.3 0.8-0.9 1.3-0.5 0.6-1.3 0.9-0.7 0.3-1.5 0.3h-33c-0.8 0-1.5-0.2-2.2-0.6-0.6-0.5-1.1-1.1-1.4-1.8-0.4-0.7-0.5-1.5-0.3-2.2 0.1-0.8 0.4-1.5 0.9-2.1l4-4.4v-18.4c0-8 6.5-14.5 14.5-14.5z"/>
		<g id="Layer">
			<path id="a" className="s0" d="m68 104c0-2.8 2.2-5 5-5 2.8 0 5 2.2 5 5v27c0 2.8-2.2 5-5 5-2.8 0-5-2.2-5-5z"/>
			<g id="Clip-Path" clip-path="url(#cp1)">
				<path id="Layer" className="s1" d="m66 100.5c0-1.4 1.1-2.5 2.5-2.5h10c1.4 0 2.5 1.1 2.5 2.5v10c0 1.4-1.1 2.5-2.5 2.5h-10c-1.4 0-2.5-1.1-2.5-2.5z"/>
			</g>
		</g>
		<path id="Layer" className="s0" d="m48.9 106.6c-1.4-2.4-0.5-5.5 1.9-6.9 2.3-1.3 5.4-0.5 6.8 1.9l14.5 25.1c1.4 2.4 0.5 5.4-1.8 6.8-2.4 1.4-5.5 0.6-6.9-1.8z"/>
		<path id="Layer" className="s0" d="m20.1 132.6c-1.7 2.8-5.3 3.8-8.2 2.2-2.9-1.7-3.9-5.4-2.2-8.2l15-26c1.6-2.9 5.3-3.9 8.2-2.2 2.9 1.6 3.8 5.3 2.2 8.2z"/>
		<path id="Layer" className="s2" d="m37.8 109.1c-1.3-0.3-2.2-1.6-1.9-2.9 0.3-1.4 1.6-2.3 3-2l2.9 0.7c1.3 0.2 2.2 1.6 1.9 2.9-0.3 1.4-1.6 2.2-3 2z"/>
		<path id="Layer" className="s3" d="m78.6 111.7c1.1 0 2 0.9 2 2v6c0 1.1-0.9 2-2 2h-11c-1.1 0-2-0.9-2-2v-6c0-1.1 0.9-2 2-2z"/>
		<g id="Layer">
			<path id="Layer" className="s4" d="m30 99l19.1 17.4q0.1 0.1 0.2 0.4 0.2 0.2 0.2 0.4 0 0.3-0.1 0.5-0.1 0.3-0.3 0.4l-0.1 0.1q-0.1 0.2-0.3 0.3-0.3 0.1-0.5 0.1-0.3 0-0.5-0.1-0.2-0.1-0.4-0.2l-19.1-17.4q-0.1-0.2-0.3-0.4-0.1-0.2-0.1-0.5 0-0.2 0.1-0.5 0.1-0.2 0.3-0.4l0.1-0.1q0.1-0.1 0.3-0.2 0.3-0.1 0.5-0.2 0.3 0 0.5 0.1 0.2 0.1 0.4 0.3z"/>
			<path id="Layer" className="s4" d="m48.9 121l-1.1 1.2-1.3-1.2q-0.6-0.5-0.9-1.2-0.3-0.7-0.4-1.4 0-0.8 0.3-1.5 0.3-0.7 0.8-1.3 0.5-0.6 1.3-0.9 0.7-0.3 1.4-0.3 0.8-0.1 1.6 0.2 0.7 0.3 1.3 0.8l1.3 1.2-1.2 1.2-1.1-1.1q-0.1-0.1-0.2-0.1-0.2 0-0.3 0-0.2 0-0.3 0-0.1 0.1-0.2 0.2-0.1 0.1-0.2 0.2 0 0.2 0 0.3 0 0.1 0.1 0.3 0 0.1 0.1 0.2l1.2 1-1.2 1.2-1.1-1q-0.1-0.1-0.2-0.1-0.1-0.1-0.3-0.1-0.1 0-0.3 0.1-0.1 0.1-0.2 0.2-0.1 0.1-0.1 0.2-0.1 0.1-0.1 0.3 0 0.1 0.1 0.2 0.1 0.2 0.2 0.2z"/>
			<path id="Layer" className="s4" d="m52.4 115.9l4.4 4q0.1 0.1 0.2 0.2 0.1 0.2 0.1 0.4 0 0.1-0.1 0.3 0 0.1-0.2 0.2-0.1 0.2-0.2 0.2-0.2 0.1-0.3 0.1-0.2 0-0.4-0.1-0.1 0-0.2-0.1l-4.4-4q-0.2-0.1-0.2-0.3-0.1-0.1-0.1-0.3 0-0.1 0.1-0.3 0-0.2 0.1-0.3 0.1-0.1 0.3-0.2 0.1 0 0.3 0 0.2 0 0.3 0 0.2 0.1 0.3 0.2zm-3.9 4.7l4.4 4q0.1 0.1 0.2 0.3 0 0.1 0 0.3 0 0.1 0 0.3-0.1 0.1-0.2 0.3-0.1 0.1-0.3 0.1-0.1 0.1-0.3 0.1-0.2 0-0.3 0-0.2-0.1-0.3-0.2l-4.4-4q-0.1-0.1-0.2-0.3 0-0.1 0-0.3 0-0.1 0-0.3 0.1-0.1 0.2-0.3 0.1-0.1 0.3-0.1 0.1-0.1 0.3-0.1 0.1 0 0.3 0 0.1 0.1 0.3 0.2zm2-2.3l4.4 4q0.1 0.1 0.2 0.3 0.1 0.1 0.1 0.3 0 0.2-0.1 0.3 0 0.2-0.1 0.3-0.2 0.1-0.3 0.2-0.2 0-0.3 0-0.2 0-0.3 0-0.2-0.1-0.3-0.2l-4.4-4q-0.1-0.1-0.2-0.2-0.1-0.2-0.1-0.3 0-0.2 0.1-0.4 0-0.1 0.2-0.2 0.1-0.1 0.2-0.2 0.2-0.1 0.3-0.1 0.2 0 0.4 0.1 0.1 0 0.2 0.1z"/>
		</g>
		<path id="Layer" className="s1" d="m32.7 115.3c-1.3 0-2.5-1.1-2.5-2.5 0-1.3 1.2-2.5 2.5-2.5h10c1.4 0 2.5 1.2 2.5 2.5 0 1.4-1.1 2.5-2.5 2.5z"/>
		<path id="Layer" className="s1" d="m21.9 122c-1.2-1.2-1.2-3.1-0.1-4.3l9.8-10c1.1-1.2 3-1.3 4.2-0.1l2.9 2.8c1.2 1.1 1.2 3 0.1 4.2l-9.8 10.1c-1.1 1.2-3 1.2-4.2 0.1z"/>
		<path id="Layer" className="s1" d="m34.9 111.9c-1.4 0-2.6-1.1-2.6-2.4 0-1.4 1.1-2.6 2.5-2.6l6-0.1c1.4 0 2.5 1.1 2.5 2.5 0 1.4-1.1 2.5-2.4 2.5z"/>
		<path id="Layer" className="s1" d="m30.9 108.2c-1.4 0-2.5-1.1-2.5-2.5 0-1.4 1.1-2.5 2.4-2.5l7-0.2c1.4 0 2.6 1.1 2.6 2.5 0 1.4-1.1 2.5-2.5 2.5z"/>
		<g id="Layer">
			<path id="Layer" className="s3" d="m52.3 93.5q0.4 0.2 0.6 0.4 0.3 0.2 0.5 0.5 0.2 0.3 0.2 0.6l1.1 5q0.1 0.3 0 0.7-0.1 0.4-0.4 0.6-0.3 0.3-0.7 0.3-0.3 0.1-0.7 0l-6.1-2.2-10.5 2.5q-0.4 0.1-0.8 0.1-0.3-0.1-0.6-0.3-0.3-0.3-0.4-0.6-0.2-0.3-0.2-0.7v-5q0-0.4 0.1-0.7 0.2-0.4 0.5-0.7 0.3-0.3 0.6-0.4 0.4-0.2 0.8-0.2h15.4q0.3 0 0.6 0.1z"/>
			<g id="Layer">
				<path id="Layer" className="s5" d="m34 41.1l30.6 3c1.1 0.1 2 0.4 2.9 0.9 0.9 0.5 1.7 1.2 2.3 2 0.6 0.9 1 1.8 1.2 2.8 0.2 1 0.1 2-0.1 3q-0.4 1.7-1.3 3.2-1 1.5-2.3 2.5-1.4 1.1-3 1.6-1.7 0.6-3.4 0.6l-24.1-0.4c-1.3 0-2.5-0.3-3.7-0.8-1.2-0.6-2.2-1.3-3.1-2.2-0.9-1-1.6-2.1-2.1-3.3-0.4-1.2-0.6-2.4-0.6-3.7l0.1-3.5q0.1-1.2 0.6-2.3 0.5-1.1 1.5-2 0.9-0.8 2.1-1.2 1.2-0.3 2.4-0.2z"/>
				<path id="Layer" className="s5" d="m65 60c0 2.8-2.2 5-5 5-2.8 0-5-2.2-5-5v-5c0-2.8 2.2-5 5-5 2.8 0 5 2.2 5 5z"/>
				<path id="Layer" className="s5" d="m46.7 48c1.3 0.7 2.5 1.6 3.4 2.8 0.9 1.2 1.6 2.6 1.9 4 0.3 1.5 0.3 3-0.1 4.5l-6 24.3q-0.4 1.7-1.3 3.1-1 1.5-2.4 2.5-1.4 1-3.1 1.5-1.6 0.5-3.4 0.4h-1.1q-1.7-0.1-3.3-0.8-1.6-0.6-2.8-1.8-1.3-1.1-2.1-2.6-0.8-1.5-1-3.2l-3.9-24.2q-0.1-0.2-0.1-0.4 0-0.2 0-0.4-0.1-0.2-0.1-0.4 0-0.2 0-0.4c0-5.5 4.5-9.9 9.9-9.9h11.1c1.5 0 3 0.3 4.4 1z"/>
				<path id="Layer" className="s1" d="m56.9 54.9q1.2 0.4 2.1 1.3 0.9 0.8 1.4 2 0.6 1.1 0.6 2.4v12.1c0 5.5-4.5 9.9-9.9 9.9h-11.6c-5.5 0-9.9-4.4-9.9-9.9v-6.7q0-1.8 0.7-3.6 0.6-1.7 1.9-3.1 1.2-1.3 2.9-2.2 1.6-0.8 3.5-1l15.8-1.5q1.3-0.1 2.5 0.3z"/>
				<path id="Layer" className="s1" d="m58.4 88.1c0 5.5-4.4 9.9-9.9 9.9h-7.3c-5.4 0-9.9-4.4-9.9-9.9v-11.9c0-5.5 4.5-9.9 9.9-9.9h7.3c5.5 0 9.9 4.4 9.9 9.9z"/>
				<path id="Layer" className="s1" d="m50.6 74.5c0-4 3.2-7.2 7.2-7.2 4 0 7.2 3.2 7.2 7.2 0 4-3.2 7.2-7.2 7.2-4 0-7.2-3.2-7.2-7.2z"/>
				<path id="Layer" className="s1" d="m21 74.5c0-4 3.2-7.2 7.2-7.2 4 0 7.2 3.2 7.2 7.2 0 4-3.2 7.2-7.2 7.2-4 0-7.2-3.2-7.2-7.2z"/>
				<path id="Layer" className="s5" d="m35 70.5c0 1.9-1.6 3.5-3.5 3.5-1.9 0-3.5-1.6-3.5-3.5v-16c0-1.9 1.6-3.5 3.5-3.5 1.9 0 3.5 1.6 3.5 3.5z"/>
				<path id="Layer" className="s5" d="m39 57.5c0 3.6-2.9 6.5-6.5 6.5-3.6 0-6.5-2.9-6.5-6.5v-2c0-3.6 2.9-6.5 6.5-6.5 3.6 0 6.5 2.9 6.5 6.5z"/>
				<path id="Layer" className="s2" d="m53 81c0 1.1-0.9 2-2 2h-3c-1.1 0-2-0.9-2-2v-13c0-1.1 0.9-2 2-2h3c1.1 0 2 0.9 2 2z"/>
				<path id="Layer" className="s6" d="m57 73.3c0 0.9-0.8 1.7-1.8 1.7h0.1c-1 0-1.8-0.8-1.8-1.7v-4.5c0-1 0.8-1.8 1.8-1.8 0.9 0 1.7 0.8 1.7 1.8z"/>
				<path id="Layer" className="s6" d="m44 73.3c0 0.9-0.8 1.7-1.8 1.7h0.1c-1 0-1.8-0.8-1.8-1.7v-4.5c0-1 0.8-1.8 1.8-1.8 0.9 0 1.7 0.8 1.7 1.8z"/>
			</g>
		</g>
		<g id="Layer">
			<path id="Layer" className="s7" d="m126.5 74h4c6.8 0 12.3 5.5 12.3 12.3q0 2.1-0.8 4.1l-4.8 13.2q-0.2 0.7-0.7 1.3-0.5 0.5-1.2 0.9-0.6 0.3-1.3 0.4-0.8 0.1-1.5-0.1l-17.4-4.3q-0.6-0.2-1.2-0.6-0.6-0.3-1-0.9-0.4-0.5-0.6-1.2-0.2-0.7-0.2-1.3l0.4-10.3c0.3-7.5 6.5-13.5 14-13.5zm-4 30.5l9.8 2.8q1.3 0.4 2.4 1.1 1.1 0.7 1.9 1.8 0.9 1 1.4 2.2 0.6 1.2 0.7 2.5l2.6 21.4q0.1 1.1-0.2 2.1-0.3 1-1 1.8-0.8 0.8-1.8 1.3-1 0.4-2.1 0.4l-35.5-0.8q-1.2 0-2.2-0.5-1.1-0.6-1.8-1.5-0.7-1-0.9-2.2-0.1-1.1 0.2-2.3l6.1-19.2c2.7-8.6 11.8-13.4 20.4-10.9z"/>
			<path id="Layer" className="s8" d="m112.6 99.7l23.8 5.1q0.3 0.1 0.7 0.3 0.3 0.2 0.5 0.5 0.2 0.3 0.3 0.6 0.1 0.4 0.1 0.8l-0.3 1.8q0 0.4-0.2 0.8-0.2 0.4-0.6 0.6-0.3 0.3-0.7 0.3-0.4 0.1-0.8 0.1l-24.2-5q-0.4-0.1-0.7-0.3-0.4-0.3-0.6-0.6-0.2-0.4-0.3-0.8 0-0.4 0.1-0.8l0.6-2q0.1-0.3 0.3-0.6 0.2-0.3 0.5-0.5 0.4-0.2 0.8-0.3 0.3 0 0.7 0z"/>
			<path id="Layer" className="s9" d="m126 104c0.2-1.1 1.2-1.8 2.3-1.6l3 0.5c1.1 0.3 1.8 1.3 1.5 2.4l-0.7 3.9c-0.2 1.1-1.3 1.8-2.4 1.6l-2.9-0.6c-1.1-0.2-1.8-1.2-1.6-2.3z"/>
			<path id="Layer" className="s10" d="m129.7 64.5c0.9-2.6 3.8-3.9 6.4-3 2.6 1 3.9 3.9 3 6.5l-2.8 7.5c-0.9 2.6-3.8 3.9-6.4 3-2.6-1-3.9-3.9-3-6.5z"/>
			<path id="Layer" className="s7" d="m125 70.8c0.4-1 1.5-1.6 2.6-1.2l9.4 3.2c1.1 0.4 1.6 1.5 1.3 2.6l-1.3 3.8c-0.4 1-1.5 1.6-2.6 1.2l-9.4-3.2c-1.1-0.4-1.6-1.5-1.3-2.6z"/>
			<g id="Layer">
				<path id="Layer" className="s11" d="m137.9 65.4l-31.8-3.9q-0.6-0.1-1.1-0.4-0.5-0.3-0.9-0.8-0.4-0.5-0.5-1.1-0.2-0.5-0.1-1.1c1.4-11.8 11.7-19.7 21.4-18.5 9.7 1.2 17.7 11.4 16.3 23.2q-0.1 0.6-0.4 1.1-0.3 0.5-0.7 0.9-0.5 0.3-1 0.5-0.6 0.1-1.2 0.1z"/>
				<path id="Layer" className="s11" d="m163 66.8l-20.3-0.4q-0.4 0-0.7-0.1-0.4-0.2-0.6-0.5-0.3-0.2-0.4-0.6-0.2-0.3-0.2-0.7c0.2-7.4 6.1-13 12.3-12.9 6.1 0.1 11.9 5.9 11.7 13.4q0 0.3-0.1 0.7-0.2 0.3-0.4 0.6-0.3 0.2-0.6 0.3-0.4 0.2-0.7 0.2z"/>
				<path id="Layer" className="s11" d="m134.6 20.1l7.7 0.6c10.7 0.7 18.9 10 18.1 20.8q0 0.2 0 0.3l-1.3 15.5q-0.1 0.9-0.5 1.6-0.4 0.7-1.1 1.3-0.6 0.5-1.4 0.7-0.8 0.2-1.7 0l-39.8-6.4q-0.9-0.1-1.6-0.6-0.7-0.5-1.1-1.2-0.5-0.7-0.6-1.6-0.1-0.8 0.1-1.6l4.7-16.4c0.6-2 1.5-3.8 2.6-5.5 1.2-1.6 2.7-3.1 4.4-4.3 1.6-1.1 3.5-2 5.5-2.6 1.9-0.5 4-0.7 6-0.6z"/>
				<path id="Layer" className="s10" d="m151.2 62.8c-3.3-0.5-5.6-3.5-5.1-6.8 0.5-3.3 3.5-5.6 6.8-5.1 3.3 0.4 5.5 3.5 5.1 6.8-0.5 3.2-3.5 5.5-6.8 5.1z"/>
				<path id="Layer" className="s10" d="m143 27.6l1.5 0.2c8.2 1.2 13.9 8.8 12.7 17q-0.1 0.2-0.1 0.4 0 0.2-0.1 0.4 0 0.2-0.1 0.4 0 0.2-0.1 0.4l-4.5 17.2c-1.6 6.2-7.7 9.9-13.9 8.5-1.6-0.3-3.1-0.9-4.5-1.8-1.4-0.8-2.6-1.9-3.6-3.1-1.1-1.3-1.9-2.7-2.5-4.2-0.6-1.5-1-3.1-1-4.7l-0.8-15.2c-0.5-8.2 5.9-15.3 14.1-15.7q1.5-0.1 2.9 0.2z"/>
				<path id="Layer" className="s11" d="m120.9 29.8l18.3-5.5q0.5-0.1 1-0.1 0.5 0.1 0.9 0.3 0.5 0.3 0.8 0.7 0.3 0.4 0.4 0.9c2.1 10.2-4.3 19.7-12.8 21.5-8.6 1.8-8.3-4.3-10.5-14.5q-0.1-0.5 0-1 0.1-0.6 0.3-1 0.3-0.5 0.7-0.8 0.4-0.3 0.9-0.5z"/>
				<g id="Layer">
					<path id="Layer" className="s12" d="m123.4 48.7v-7.4c-0.1-9.9 7.9-18 17.9-18.1q0.6 0 1.1 0 0.6 0.1 1.2 0.2 0.6 0 1.1 0.1 0.6 0.1 1.1 0.3l18.1 4.6"/>
				</g>
				<path id="Layer" className="s11" d="m140.7 26.2q0.3-0.3 0.6-0.6 0.4-0.3 0.7-0.5 0.4-0.2 0.8-0.4 0.4-0.2 0.8-0.3 5.2-1.5 10.4-0.6 6.5 2.1 9.1 4.6c5.2 5 3.9 15-0.2 19.3q-0.3 0.2-0.5 0.4-0.3 0.1-0.6 0.1-0.3 0.1-0.6 0-0.3-0.1-0.6-0.3l-18.4-12.7c-1.2 6.7-6 11-12.7 12.4-8.6 1.8-11.3 3.7-13.5-6.5q-0.1-0.6-0.1-1.1 0.1-0.6 0.3-1.2 0.2-0.5 0.6-0.9 0.3-0.5 0.8-0.8l15.9-10.7q0.4-0.3 0.8-0.5 0.5-0.2 0.9-0.3 0.5-0.2 0.9-0.2 0.5-0.1 1-0.1 2.3 0 3.6 0.9z"/>
				<path id="Layer" className="s10" d="m123.5 59c-3.3-0.5-5.6-3.5-5.1-6.8 0.4-3.3 3.4-5.5 6.7-5.1 3.3 0.5 5.6 3.5 5.1 6.8-0.4 3.3-3.5 5.6-6.7 5.1z"/>
				<path id="Layer" className="s13" d="m144.5 47.7c0.2-1.1 1.2-1.9 2.3-1.7l1 0.1c1.1 0.2 1.8 1.2 1.7 2.3l-1.1 7.9c-0.2 1.1-1.2 1.8-2.3 1.7l-1-0.2c-1.1-0.1-1.9-1.1-1.7-2.2z"/>
				<path id="Layer" className="s14" d="m150.5 49.3c0.1-1 1-1.7 2-1.5 0.9 0.1 1.6 1 1.5 1.9l-0.5 3.5c-0.2 1-1.1 1.6-2 1.5-1-0.1-1.6-1-1.5-2z"/>
				<path id="Layer" className="s14" d="m139.6 47.7c0.1-0.9 1-1.6 2-1.5 0.9 0.2 1.6 1.1 1.5 2l-0.5 3.5c-0.2 0.9-1 1.6-2 1.5-1-0.2-1.6-1.1-1.5-2z"/>
				<g id="Layer">
					<path id="c" className="s15" d="m136.7 57.3l10.1 2.6q0.4 0.1 0.7 0.3 0.4 0.2 0.6 0.6 0.2 0.4 0.2 0.8 0 0.4-0.1 0.8l-0.7 2.3q-0.1 0.5-0.4 0.9-0.3 0.4-0.7 0.7-0.4 0.3-0.9 0.5-0.5 0.1-1 0.1l-6.3-0.4q-0.9 0-1.8-0.4-0.8-0.4-1.4-1.1-0.6-0.8-0.9-1.7-0.3-0.9-0.2-1.8l0.3-2.5q0-0.4 0.2-0.8 0.3-0.4 0.6-0.6 0.4-0.3 0.8-0.4 0.4 0 0.9 0.1z"/>
					<g id="Clip-Path" clip-path="url(#cp2)">
						<path id="Layer" className="s16" d="m132.9 55.4c0.1-0.8 0.9-1.4 1.7-1.3l10.9 1.5c0.8 0.1 1.4 0.9 1.3 1.7l-0.6 4c-0.1 0.8-0.9 1.4-1.7 1.3l-10.9-1.6c-0.8-0.1-1.4-0.8-1.3-1.7z"/>
					</g>
					<g id="Clip-Path" clip-path="url(#cp3)">
						<path id="Layer" className="s17" d="m136.3 72.4c-2.4-0.4-4.1-2.7-3.8-5.1 0.3-2.5 2.6-4.2 5.1-3.9 2.4 0.4 4.2 2.7 3.8 5.1-0.3 2.5-2.6 4.2-5.1 3.9z"/>
					</g>
				</g>
			</g>
			<path id="Layer" className="s10" d="m185.8 72.6c0.8-1.2 2.3-1.6 3.5-0.9 1.2 0.8 1.5 2.3 0.8 3.5l-2.5 4.3c-0.8 1.1-2.3 1.5-3.5 0.8-1.2-0.7-1.5-2.2-0.8-3.4z"/>
			<g id="Layer">
				<g id="Layer">
					<path id="e" className="s18" d="m188.6 77.8l0.2 0.7c0.4 1.2 0.5 2.4 0.4 3.6-0.1 1.2-0.5 2.3-1.1 3.4-0.5 1-1.3 2-2.2 2.7-0.9 0.8-2 1.4-3.1 1.7l-29.4 9q-0.7 0.2-1.5 0.2-0.8-0.1-1.4-0.5-0.7-0.3-1.2-0.9-0.5-0.6-0.7-1.3l-3.3-10.9q-0.2-0.7-0.2-1.5 0.1-0.7 0.5-1.4 0.3-0.7 0.9-1.2 0.6-0.4 1.3-0.7l29.4-8.9c1.2-0.4 2.4-0.5 3.5-0.4 1.2 0.1 2.4 0.5 3.5 1 1 0.6 2 1.3 2.7 2.3 0.8 0.9 1.3 2 1.7 3.1z"/>
					<g id="Clip-Path" clip-path="url(#cp4)">
						<path id="Layer" className="s19" d="m165.7 68.2c1.6-0.5 3.3 0.4 3.7 1.9l2.1 6.7c0.5 1.6-0.4 3.3-2 3.8l-9.6 2.9c-1.5 0.5-3.2-0.4-3.7-2l-2.1-6.7c-0.4-1.6 0.5-3.2 2-3.7z"/>
					</g>
				</g>
				<g id="Layer">
					<path id="g" className="s18" d="m193.6 73.1c1.8-0.5 3.7 0.5 4.2 2.3 0.6 1.8-0.4 3.7-2.2 4.2l-7.2 2.2c-1.8 0.5-3.7-0.5-4.2-2.2-0.6-1.8 0.4-3.7 2.2-4.3z"/>
					<g id="Clip-Path" clip-path="url(#cp5)">
						<path id="Layer" className="s20" d="m194.2 70.3c2-0.6 4.2 0.5 4.8 2.6l1 3.3c0.7 2.1-0.5 4.3-2.5 4.9-2.1 0.6-4.3-0.5-4.9-2.6l-1-3.4c-0.7-2 0.5-4.2 2.6-4.8z"/>
					</g>
				</g>
				<path id="Layer" className="s20" d="m195.9 71.8c0.8-0.2 1.7 0.2 2 1.1l1.4 4.5c0.2 0.9-0.2 1.7-1.1 2-0.8 0.3-1.7-0.2-2-1.1l-1.4-4.5c-0.2-0.8 0.3-1.7 1.1-2z"/>
				<path id="Layer" className="s21" d="m179.5 75.2q0.8-0.3 1.6-0.2 0.9 0 1.7 0.3 0.7 0.4 1.4 0.9 0.6 0.6 1 1.3v0.1"/>
			</g>
			<path id="Layer" className="s10" d="m117.2 86.6c-2.3-2-2.5-5.5-0.5-7.8 2-2.2 5.4-2.5 7.7-0.5l17.4 15.1c2.3 2 2.5 5.5 0.5 7.8-2 2.2-5.4 2.5-7.7 0.5z"/>
			<path id="Layer" className="s10" d="m159.5 86.4c2.9-0.8 5.9 1 6.7 3.9 0.8 2.9-0.9 6-3.9 6.7l-22.2 6c-2.9 0.8-5.9-1-6.7-3.9-0.8-2.9 0.9-5.9 3.9-6.7z"/>
			<path id="Layer" className="s10" d="m159.3 88c0.5-1.3 1.9-2 3.2-1.6l14.3 4.6c1.3 0.5 2 1.9 1.6 3.2-0.5 1.3-1.9 2-3.2 1.6l-14.3-4.6c-1.3-0.5-2-1.9-1.6-3.2z"/>
			<path id="Layer" className="s10" d="m160.4 90.7c0.5-1.3 2-1.9 3.2-1.3l7.4 3.1c1.3 0.5 1.9 2 1.3 3.3-0.5 1.2-2 1.8-3.3 1.3l-7.3-3.1c-1.3-0.6-1.9-2-1.3-3.3z"/>
			<path id="Layer" className="s10" d="m158.1 90.4c0.9-1.2 2.4-1.4 3.5-0.5l6.4 4.8c1.1 0.8 1.4 2.4 0.5 3.5-0.8 1.1-2.4 1.3-3.5 0.5l-6.4-4.8c-1.1-0.9-1.3-2.4-0.5-3.5z"/>
			<path id="Layer" className="s10" d="m157.2 89.6c-0.4-1.3 0.3-2.7 1.7-3.1l11.5-3.3c1.3-0.4 2.7 0.4 3.1 1.7 0.4 1.3-0.4 2.7-1.7 3.1l-11.5 3.3c-1.4 0.4-2.8-0.4-3.1-1.7z"/>
			<path id="Layer" className="s10" d="m195.2 81.5c1.1 0.8 1.4 2.3 0.5 3.5-0.8 1.1-2.3 1.3-3.4 0.5l-4.1-2.9c-1.1-0.8-1.4-2.4-0.5-3.5 0.8-1.1 2.3-1.4 3.4-0.6z"/>
			<path id="Layer" className="s10" d="m191.4 82.9c1.1 0.8 1.3 2.4 0.5 3.5-0.8 1.1-2.3 1.3-3.5 0.5l-4-2.9c-1.1-0.8-1.4-2.4-0.6-3.5 0.9-1.1 2.4-1.4 3.5-0.6z"/>
			<path id="Layer" className="s10" d="m188.4 85.9c1.1 0.8 1.3 2.4 0.5 3.5-0.8 1.1-2.3 1.3-3.5 0.5l-4-2.9c-1.1-0.8-1.4-2.4-0.6-3.5 0.9-1.1 2.4-1.4 3.5-0.6z"/>
		</g>
		<g id="Layer">
			<path id="Layer" className="s22" d="m244 103h8.8c2.3 0 4.5 0.4 6.7 1.1 2.1 0.8 4.1 1.9 5.9 3.4 1.8 1.4 3.3 3.1 4.5 5.1 1.1 1.9 2 4 2.5 6.2l2.8 13.6q0.2 0.6 0 1.3-0.1 0.7-0.6 1.2-0.4 0.5-1 0.8-0.6 0.3-1.3 0.3h-50q-0.8 0-1.4-0.3-0.7-0.4-1.1-1-0.4-0.6-0.5-1.3-0.1-0.7 0.2-1.4l5.7-15.8c0.7-2 1.7-3.8 2.9-5.4 1.3-1.6 2.8-3 4.4-4.2 1.7-1.2 3.5-2.1 5.5-2.7 1.9-0.6 4-0.9 6-0.9z"/>
			<path id="Layer" className="s23" d="m242 100h13q1 0 1.9 0.4 0.9 0.4 1.6 1.1 0.7 0.7 1.1 1.6 0.4 0.9 0.4 1.9v3.1c0 0.8-0.2 1.7-0.6 2.4-0.4 0.7-1 1.4-1.7 1.8-0.7 0.5-1.6 0.7-2.4 0.8-0.8 0-1.7-0.1-2.4-0.5l-5.5-2.6-3.5 2c-0.7 0.4-1.5 0.6-2.3 0.6-0.8 0-1.6-0.2-2.3-0.6-0.7-0.4-1.3-1-1.7-1.7-0.4-0.7-0.6-1.5-0.6-2.3v-3q0-1 0.4-1.9 0.4-0.9 1.1-1.6 0.7-0.7 1.6-1.1 0.9-0.4 1.9-0.4z"/>
			<path id="Layer" className="s24" d="m243 96c0-2.8 2.2-5 5-5 2.8 0 5 2.2 5 5v7c0 2.8-2.2 5-5 5-2.8 0-5-2.2-5-5z"/>
			<g id="Layer">
				<path id="Layer" className="s25" d="m237.5 49.2l23.4 3.1c8.9 1.2 15.3 9.1 14.7 18.1l-0.8 11.3c-0.7 8.6-8.1 15-16.6 14.3q-1 0-2.1-0.2-1-0.3-2-0.6-1-0.4-1.9-0.9-0.9-0.4-1.8-1l-17.5-12.4q-2.4-1.7-4.2-4-1.8-2.3-2.9-5-1.1-2.7-1.4-5.6-0.2-2.9 0.3-5.7l0.5-2.6c0.3-1.4 0.8-2.7 1.6-3.9 0.7-1.1 1.7-2.2 2.8-3 1.1-0.8 2.4-1.4 3.8-1.7 1.3-0.3 2.7-0.4 4.1-0.2z"/>
				<path id="Layer" className="s25" d="m256.6 55.4c-4.4-2.9-5.6-8.8-2.8-13.2 2.9-4.4 8.8-5.6 13.2-2.7l6.7 4.3c4.4 2.9 5.6 8.8 2.8 13.2-2.9 4.4-8.8 5.6-13.2 2.7z"/>
				<path id="Layer" className="s26" d="m259.9 60.1c-2.5-0.4-4.2-2.7-3.9-5.1 0.4-2.5 2.7-4.2 5.1-3.9 2.5 0.4 4.2 2.7 3.9 5.1-0.4 2.5-2.7 4.2-5.1 3.9z"/>
				<path id="Layer" className="s26" d="m265.5 64.9c-2.4-0.4-4.1-2.6-3.8-5.1 0.4-2.5 2.6-4.2 5.1-3.8 2.5 0.3 4.2 2.6 3.8 5-0.3 2.5-2.6 4.2-5.1 3.9z"/>
				<path id="Layer" className="s24" d="m230 86.7c-3.2-0.5-5.5-3.5-5.1-6.8 0.5-3.3 3.5-5.5 6.8-5.1 3.3 0.5 5.6 3.5 5.1 6.8-0.4 3.3-3.5 5.6-6.8 5.1z"/>
				<path id="Layer" className="s24" d="m260.7 89.1c-3.3-0.4-5.5-3.4-5.1-6.7 0.5-3.3 3.5-5.6 6.8-5.1 3.3 0.4 5.6 3.5 5.1 6.7-0.5 3.3-3.5 5.6-6.8 5.1z"/>
				<path id="Layer" className="s24" d="m261.6 78.5l-0.5 6.2c-0.6 8.3-7.7 14.5-16 13.9q-0.2 0-0.3 0-0.2 0-0.4 0-0.1-0.1-0.3-0.1-0.2 0-0.4 0l-3.7-0.6c-8.1-1.4-13.7-9.1-12.3-17.3q0-0.4 0.2-0.9 0.1-0.5 0.2-0.9 0.1-0.5 0.3-0.9 0.2-0.5 0.3-0.9l4-9q0.7-1.6 1.7-2.9 1-1.3 2.2-2.4 1.3-1.1 2.8-1.9 1.5-0.8 3.1-1.2l3.8 3.2q1.3 1 2.2 2.3 1 1.3 1.6 2.8 0.6 1.5 0.8 3.1 0.3 1.6 0.1 3.2c-0.1 0.8 0.1 1.6 0.4 2.4 0.3 0.7 0.7 1.3 1.3 1.9 0.6 0.5 1.3 0.9 2.1 1 0.8 0.2 1.6 0.2 2.4 0.1z"/>
				<g id="Layer">
					<path id="i" className="s27" d="m236.5 84.5l11.8 1q0.3 0 0.6 0.1 0.2 0.2 0.4 0.4 0.2 0.2 0.3 0.4 0.1 0.3 0.1 0.6v2.6q0 0.7-0.3 1.4-0.3 0.7-0.9 1.2-0.5 0.4-1.2 0.7-0.8 0.2-1.5 0.1l-7.5-1.2q-0.7-0.1-1.3-0.4-0.7-0.4-1.1-0.9-0.5-0.6-0.8-1.3-0.2-0.6-0.2-1.4v-1.8q0-0.3 0.1-0.6 0.1-0.3 0.3-0.5 0.3-0.2 0.6-0.3 0.3-0.1 0.6-0.1z"/>
					<g id="Clip-Path" clip-path="url(#cp6)">
						<path id="Layer" className="s16" d="m236.9 84.2c0.1-0.9 0.9-1.4 1.7-1.3l13.9 1.9c0.8 0.2 1.4 0.9 1.2 1.7l-0.2 2c-0.2 0.8-0.9 1.4-1.7 1.3l-13.9-2c-0.8-0.1-1.4-0.8-1.3-1.7z"/>
					</g>
					<g id="Clip-Path" clip-path="url(#cp7)">
						<path id="Layer" className="s17" d="m243.9 101.7c-3-0.5-5.1-3.2-4.7-6.3 0.5-3 3.2-5.1 6.2-4.6 3.1 0.4 5.2 3.2 4.7 6.2-0.4 3-3.2 5.1-6.2 4.7z"/>
					</g>
				</g>
				<path id="Layer" className="s28" d="m236.5 71.8c0.1-0.6 0.6-1 1.1-0.9l3 0.4c0.6 0.1 0.9 0.6 0.9 1.2l-1.3 8.9c-0.1 0.5-0.6 0.9-1.1 0.8l-3-0.4c-0.5-0.1-0.9-0.6-0.8-1.1z"/>
				<path id="Layer" className="s29" d="m243.3 73.4c0.2-1 1.1-1.7 2-1.5 1 0.1 1.6 1 1.5 1.9l-0.6 4.5c-0.2 1-1 1.6-2 1.5-1-0.1-1.6-1-1.5-2z"/>
				<path id="Layer" className="s29" d="m232.4 71.8c0.2-0.9 1.1-1.6 2-1.5 1 0.2 1.6 1.1 1.5 2l-0.6 4.5c-0.1 0.9-1 1.6-2 1.5-0.9-0.2-1.6-1.1-1.5-2z"/>
			</g>
		</g>
		<g id="Layer">
			<g id="Layer">
				<path id="k" className="s30" d="m153.2 111q0.2-1.3 0.9-2.4 0.7-1.1 1.7-1.9 1-0.8 2.2-1.3 1.2-0.4 2.5-0.4h4q0.4 0 0.8 0 0.4 0.1 0.8 0.2 0.5 0.1 0.8 0.2 0.4 0.1 0.8 0.3 0.5-0.6 1.2-1.1 0.7-0.5 1.4-0.9 0.8-0.3 1.6-0.5 0.8-0.2 1.6-0.2h7q1.5 0 2.9 0.6 1.3 0.5 2.4 1.6 1.1 1 1.6 2.4 0.6 1.4 0.6 2.9 0 0 0 0v0.5h1q1 0 1.9 0.4 0.9 0.4 1.6 1.1 0.7 0.7 1.1 1.6 0.4 0.9 0.4 1.9h-48q0-1 0.4-1.9 0.4-0.9 1.1-1.6 0.7-0.7 1.6-1.1 0.9-0.4 1.9-0.4z"/>
				<g id="Clip-Path" clip-path="url(#cp8)">
					<g id="Layer">
						<g id="Layer">
							<path id="Layer" className="s31" d="m169 114.5c0-4.1 3.4-7.5 7.5-7.5h1c4.1 0 7.5 3.4 7.5 7.5 0 4.1-3.4 7.5-7.5 7.5h-1c-4.1 0-7.5-3.4-7.5-7.5z"/>
							<path id="Layer" className="s31" d="m173 114.5c0-1.9 1.6-3.5 3.5-3.5 1.9 0 3.5 1.6 3.5 3.5v8c0 1.9-1.6 3.5-3.5 3.5-1.9 0-3.5-1.6-3.5-3.5z"/>
							<path id="Layer" className="s31" d="m157 113c0-2.2 1.8-4 4-4 2.2 0 4 1.8 4 4v7c0 2.2-1.8 4-4 4-2.2 0-4-1.8-4-4z"/>
						</g>
					</g>
				</g>
			</g>
			<path id="Layer" className="s32" d="m148.5 129h43c0.4 0 0.8 0.2 1.1 0.4 0.2 0.3 0.4 0.7 0.4 1.1 0 0.4-0.2 0.8-0.4 1.1-0.3 0.2-0.7 0.4-1.1 0.4h-43c-0.4 0-0.8-0.2-1.1-0.4-0.2-0.3-0.4-0.7-0.4-1.1 0-0.4 0.2-0.8 0.4-1.1 0.3-0.2 0.7-0.4 1.1-0.4z"/>
			<path id="Layer" className="s15" d="m145.5 116h49q0.5 0 1 0.2 0.4 0.2 0.8 0.5 0.3 0.4 0.5 0.8 0.2 0.5 0.2 1v4.5q0 1.4-0.5 2.7-0.6 1.3-1.6 2.2-0.9 1-2.2 1.6-1.3 0.5-2.7 0.5h-40q-1.4 0-2.7-0.5-1.3-0.6-2.2-1.6-1-0.9-1.6-2.2-0.5-1.3-0.5-2.7v-4.5q0-0.5 0.2-1 0.2-0.4 0.5-0.8 0.4-0.3 0.8-0.5 0.5-0.2 1-0.2z"/>
			<path id="Layer" className="s33" d="m182.5 125.6v-11.2"/>
			<path id="Layer" className="s33" d="m187.5 113.5v6.2"/>
			<path id="Layer" className="s33" d="m151.5 114.5v6.2"/>
		</g>
		<path id="Layer" className="s24" d="m207.8 107.9c2.6-1.4 6-0.4 7.4 2.3l10.3 19.4c1.4 2.7 0.4 6-2.3 7.5-2.6 1.4-6 0.4-7.4-2.3l-10.3-19.4c-1.4-2.7-0.4-6 2.3-7.5z"/>
		<g id="Layer">
			<path id="Layer" className="s24" d="m197 112c0-1.7 1.3-3 3-3h7c1.7 0 3 1.3 3 3 0 1.7-1.3 3-3 3h-7c-1.7 0-3-1.3-3-3z"/>
			<g id="Layer" style="opacity: .8">
				<path id="Layer" className="s34" d="m207 118v-11.2q-1.5-0.4-2.8-1.2-1.3-0.8-2.2-2-1-1.2-1.5-2.6-0.5-1.5-0.5-3v-10q0-0.6 0.2-1.1 0.3-0.6 0.7-1 0.4-0.4 1-0.7 0.5-0.2 1.1-0.2h12q0.6 0 1.1 0.2 0.6 0.3 1 0.7 0.4 0.4 0.7 1 0.2 0.5 0.2 1.1v10q0 1.5-0.5 3-0.5 1.4-1.5 2.6-0.9 1.2-2.2 2-1.3 0.8-2.8 1.2v11.2h2.5c0.4 0 0.8 0.2 1.1 0.4 0.2 0.3 0.4 0.7 0.4 1.1 0 0.4-0.2 0.8-0.4 1.1-0.3 0.2-0.7 0.4-1.1 0.4h-9c-0.4 0-0.8-0.2-1.1-0.4-0.2-0.3-0.4-0.7-0.4-1.1 0-0.4 0.2-0.8 0.4-1.1 0.3-0.2 0.7-0.4 1.1-0.4z"/>
			</g>
			<path id="Layer" className="s24" d="m209 107c0-1.7 1.3-3 3-3h3c1.7 0 3 1.3 3 3 0 1.7-1.3 3-3 3h-3c-1.7 0-3-1.3-3-3z"/>
			<path id="Layer" className="s24" d="m199 103c0-1.7 1.3-3 3-3h3c1.7 0 3 1.3 3 3 0 1.7-1.3 3-3 3h-3c-1.7 0-3-1.3-3-3z"/>
			<path id="Layer" className="s24" d="m201 107c0-1.7 1.3-3 3-3h3c1.7 0 3 1.3 3 3 0 1.7-1.3 3-3 3h-3c-1.7 0-3-1.3-3-3z"/>
		</g>
		<g id="Layer">
			<path id="m" className="s30" d="m71 119h3q1 0 1.9 0.4 0.9 0.4 1.6 1.1 0.7 0.7 1.1 1.6 0.4 0.9 0.4 1.9v1h-30v-1q0-1 0.4-1.9 0.4-0.9 1.1-1.6 0.7-0.7 1.6-1.1 0.9-0.4 1.9-0.4 0-0.8 0.3-1.5 0.3-0.8 0.9-1.3 0.5-0.6 1.3-0.9 0.7-0.3 1.5-0.3h9q0.8 0 1.5 0.3 0.8 0.3 1.3 0.9 0.6 0.5 0.9 1.3 0.3 0.7 0.3 1.5z"/>
			<g id="Clip-Path" clip-path="url(#cp9)">
				<path id="Layer" className="s31" d="m56 123c0-2.8 2.2-5 5-5h2c2.8 0 5 2.2 5 5 0 2.8-2.2 5-5 5h-2c-2.8 0-5-2.2-5-5z"/>
			</g>
			<g id="Clip-Path" clip-path="url(#cp10)">
				<path id="Layer" className="s31" d="m59 123.5c0-1.4 1.1-2.5 2.5-2.5 1.4 0 2.5 1.1 2.5 2.5v5c0 1.4-1.1 2.5-2.5 2.5-1.4 0-2.5-1.1-2.5-2.5z"/>
			</g>
			<g id="Clip-Path" clip-path="url(#cp11)">
				<path id="Layer" className="s31" d="m71 125.5c0-1.4 1.1-2.5 2.5-2.5 1.4 0 2.5 1.1 2.5 2.5v5c0 1.4-1.1 2.5-2.5 2.5-1.4 0-2.5-1.1-2.5-2.5z"/>
			</g>
		</g>
		<path id="Layer" className="s35" d="m219 130.5c0-0.8 0.7-1.5 1.5-1.5h27c0.8 0 1.5 0.7 1.5 1.5 0 0.8-0.7 1.5-1.5 1.5h-27c-0.8 0-1.5-0.7-1.5-1.5z"/>
		<path id="Layer" className="s35" d="m118 130.5c0-0.8 0.7-1.5 1.5-1.5h27c0.8 0 1.5 0.7 1.5 1.5 0 0.8-0.7 1.5-1.5 1.5h-27c-0.8 0-1.5-0.7-1.5-1.5z"/>
		<path id="Layer" className="s35" d="m49 130.5c0-0.8 0.7-1.5 1.5-1.5h27c0.8 0 1.5 0.7 1.5 1.5 0 0.8-0.7 1.5-1.5 1.5h-27c-0.8 0-1.5-0.7-1.5-1.5z"/>
		<path id="Layer" className="s36" d="m216 127.5c0-1.4 1.1-2.5 2.5-2.5h31c1.4 0 2.5 1.1 2.5 2.5 0 1.4-1.1 2.5-2.5 2.5h-31c-1.4 0-2.5-1.1-2.5-2.5z"/>
		<path id="Layer" className="s36" d="m115 127.5c0-1.4 1.1-2.5 2.5-2.5h31c1.4 0 2.5 1.1 2.5 2.5 0 1.4-1.1 2.5-2.5 2.5h-31c-1.4 0-2.5-1.1-2.5-2.5z"/>
		<path id="Layer" className="s36" d="m46 127.5c0-1.4 1.1-2.5 2.5-2.5h31c1.4 0 2.5 1.1 2.5 2.5 0 1.4-1.1 2.5-2.5 2.5h-31c-1.4 0-2.5-1.1-2.5-2.5z"/>
		<path id="Layer" className="s37" d="m7 134c0-1.1 0.9-2 2-2h270c1.1 0 2 0.9 2 2v6c0 1.1-0.9 2-2 2h-270c-1.1 0-2-0.9-2-2z"/>
		<g id="Layer" style="opacity: .8">
			<path id="Layer" className="s34" d="m92 129v-11.2q-1.5-0.4-2.8-1.2-1.3-0.8-2.2-2-1-1.2-1.5-2.6-0.5-1.5-0.5-3v-10q0-0.6 0.2-1.1 0.3-0.6 0.7-1 0.4-0.4 1-0.7 0.5-0.2 1.1-0.2h12q0.6 0 1.1 0.2 0.6 0.3 1 0.7 0.4 0.4 0.7 1 0.2 0.5 0.2 1.1v10q0 1.5-0.5 3-0.5 1.4-1.5 2.6-0.9 1.2-2.2 2-1.3 0.8-2.8 1.2v11.2h2.5c0.4 0 0.8 0.2 1.1 0.4 0.2 0.3 0.4 0.7 0.4 1.1 0 0.4-0.2 0.8-0.4 1.1-0.3 0.2-0.7 0.4-1.1 0.4h-9c-0.4 0-0.8-0.2-1.1-0.4-0.2-0.3-0.4-0.7-0.4-1.1 0-0.4 0.2-0.8 0.4-1.1 0.3-0.2 0.7-0.4 1.1-0.4z"/>
		</g>
		<g id="Layer">
			<path id="Layer" className="s1" d="m64.4 102.7c-1.3-0.4-2.1-1.8-1.7-3.2 0.4-1.3 1.8-2 3.1-1.6l4.8 1.4c1.3 0.4 2.1 1.8 1.7 3.2-0.4 1.3-1.8 2-3.1 1.6z"/>
			<g id="Layer" style="opacity: .8">
				<path id="Layer" className="s34" d="m76.7 105.4l-8.9-6.9q-1.1 0.9-2.6 1.5-1.4 0.5-2.9 0.5-1.6 0-3-0.5-1.5-0.5-2.7-1.4l-7.9-6.2q-0.4-0.3-0.7-0.9-0.3-0.5-0.4-1.1-0.1-0.6 0.1-1.1 0.2-0.6 0.5-1.1l7.4-9.4q0.4-0.5 0.9-0.8 0.5-0.3 1.1-0.4 0.6 0 1.2 0.1 0.6 0.2 1 0.5l7.9 6.2q1.2 0.9 2 2.2 0.9 1.3 1.2 2.8 0.4 1.5 0.2 3-0.1 1.5-0.8 2.9l8.9 6.9 1.5-1.9c0.2-0.3 0.6-0.6 1-0.6 0.4 0 0.8 0.1 1.1 0.3 0.3 0.3 0.5 0.6 0.6 1 0 0.4-0.1 0.8-0.3 1.1l-5.6 7.1c-0.2 0.3-0.6 0.5-1 0.6-0.4 0-0.8-0.1-1.1-0.3-0.3-0.3-0.5-0.6-0.6-1 0-0.4 0.1-0.8 0.4-1.1z"/>
			</g>
			<path id="Layer" className="s1" d="m70.9 91.8c0.4-1.3 1.8-2 3.1-1.6 1.4 0.5 2.1 1.9 1.7 3.2l-1.6 4.8c-0.4 1.3-1.8 2-3.1 1.6-1.4-0.5-2.1-1.9-1.7-3.2z"/>
			<path id="Layer" className="s1" d="m73.9 95.8c0.4-1.3 1.8-2 3.1-1.6 1.4 0.5 2.1 1.9 1.7 3.2l-1.6 4.8c-0.4 1.3-1.8 2-3.1 1.6-1.4-0.5-2.1-1.9-1.7-3.2z"/>
			<path id="Layer" className="s1" d="m77.9 95.8c0.4-1.3 1.8-2 3.1-1.6 1.4 0.5 2.1 1.9 1.7 3.2l-1.6 4.8c-0.4 1.3-1.8 2-3.1 1.6-1.4-0.5-2.1-1.9-1.7-3.2z"/>
		</g>
		<path id="Layer" className="s15" d="m63.4 89.6l2.1-0.6c0.5-0.2 1.1-0.2 1.6 0 0.6 0.2 1.1 0.5 1.4 0.9 0.4 0.4 0.6 1 0.7 1.5 0 0.6-0.1 1.1-0.3 1.6l-0.9 1.7c-0.5 0.9-1.2 1.7-2 2.4-0.8 0.6-1.8 1-2.8 1.3-1.1 0.2-2.1 0.1-3.1-0.1-1-0.3-2-0.8-2.8-1.4l-5.8-4.8q-0.2-0.2-0.3-0.5-0.1-0.4 0-0.7 0.2-0.3 0.4-0.4 0.3-0.2 0.7-0.2l2.1 0.2q1.1 0.2 2.3 0.2 1.1 0 2.3-0.2 1.1-0.1 2.2-0.3 1.1-0.2 2.2-0.6z"/>
		<path id="Layer" className="s3" d="m18 120.7c-0.8-0.7-0.8-2-0.1-2.8l4.2-4.3c0.8-0.8 2-0.8 2.8-0.1l8 7.7c0.7 0.7 0.8 2 0 2.8l-4.2 4.3c-0.7 0.8-2 0.8-2.8 0.1z"/>
	</g>
</svg>