<svg version="1.2" xmlns="http://www.w3.org/2000/svg" viewBox="0 0 800 456" width="800" height="456"><style>.a{fill:#52ae48}.b{fill:#e48c7f}.c{fill:#f69b8a}.d{fill:#7cc142}.e{fill:#e9e1e2}.f{fill:#fff}.g{fill:#43ade1}.h{fill:#f8b3a0}.i{fill:#b09e9e}.j{fill:#978686}.k{fill:#732526}.l{fill:#cf3b46}.m{fill:none;stroke:#b09e9e;stroke-linecap:round;stroke-linejoin:round;stroke-width:18}.n{fill:#2b4382}.o{fill:#6d3a23}.p{fill:#fdbb11}.q{fill:#cd7555}.r{fill:#d98d73}.s{fill:#4359a7}.t{fill:#8c3433}.u{fill:#ec4a4e}.v{fill:#592a1a}.w{fill:#a35e48}.x{fill:#8d4d29}.y{fill:none;stroke:#f69b8a;stroke-linecap:round;stroke-width:4}.z{fill:#dedfe7}.A{fill:#ff4b4b}.B{fill:#ffc800}</style><path className="a" d="m254.3 225.9q1 0.4 1.8 1.2 0.8 0.8 1.3 1.8 0.4 1.1 0.4 2.2v9.2h-62.7v-9.2q0-1.1 0.4-2.2 0.4-1 1.2-1.8 0.8-0.8 1.9-1.2 1-0.5 2.2-0.5h51.3q1.1 0 2.2 0.5z"/><path className="b" d="m392.9 232.3l-38.9 16.4-5.5-12.9 38.9-16.4c1.7-0.7 3.7-0.7 5.4 0 1.7 0.7 3.1 2 3.8 3.7 0.8 1.7 0.8 3.7 0.1 5.4-0.7 1.7-2.1 3.1-3.8 3.8z"/><path className="c" d="m404.3 234.7c1.5 1.5 2.3 3.5 2.3 5.7 0 2.1-0.8 4.2-2.3 5.7-1.5 1.5-3.6 2.4-5.7 2.4h-28.2c-1 0-1.9 0.8-1.9 1.9v121.9c0 11.7-6.9 22.6-17.8 26.9-3.4 1.3-6.9 1.9-10.3 1.9-2.5 0-5-0.4-7.5-1-2.4-0.7-4.7-1.7-6.9-3-2.1-1.3-4.1-2.9-5.9-4.7-1.7-1.8-3.2-3.8-4.4-6.1l-64.2-119.3c-5.4-10-1.7-22.4 8.3-27.8 10-5.4 22.4-1.7 27.8 8.3l39.9 74.3v-70.4q0-2 0.3-4 0.3-2 0.8-4 0.6-1.9 1.5-3.8 0.8-1.8 1.9-3.5l16.2-25.2c2.8-4.6 8.8-6 13.4-3.1 4.6 2.8 5.9 8.8 3.1 13.4l-7.2 11.1h41.1c2.1 0 4.2 0.9 5.7 2.4z"/><path className="a" d="m287.6 247.5l30.2 56.2-34.8 21.8-31.5-58.5c-5.4-10-1.7-22.4 8.3-27.8 10-5.4 22.4-1.7 27.8 8.3z"/><path className="d" d="m156.6 400.7v-135.6c0-18.1 14.6-32.8 32.8-32.8h70.5c18.1 0 32.8 14.7 32.8 32.8v135.6q0 1.7-0.6 3.2-0.7 1.5-1.8 2.6-1.2 1.2-2.7 1.8-1.5 0.6-3.1 0.6h-119.7q-1.7 0-3.2-0.6-1.5-0.6-2.6-1.8-1.2-1.1-1.8-2.6-0.6-1.5-0.6-3.2z"/><path className="e" d="m389 380.2q0.6 0.2 1.1 0.6 0.5 0.4 0.9 0.9 0.3 0.5 0.5 1.1 0.2 0.6 0.2 1.2v7.1h-169.6v-7.1q0-0.6 0.2-1.2 0.1-0.6 0.5-1.1 0.4-0.5 0.9-0.9 0.5-0.4 1.1-0.6c8.8-3 37-12.4 54.1-14.3 12.7-1.3 21.6 1.5 28 6.9 6.4-5.4 15.3-8.2 28-6.9 17.1 1.9 45.3 11.3 54.1 14.3z"/><path className="f" d="m391.7 399.2h-169.6v-6.9q0-0.6 0.2-1.2 0.1-0.6 0.5-1.1 0.4-0.5 0.9-0.9 0.5-0.4 1.1-0.6c8.8-3 37-12.4 54.1-14.3 12.7-1.4 21.6 1.5 28 6.9 6.4-5.4 15.3-8.3 28-6.9 17.1 1.9 45.3 11.3 54.1 14.3q0.6 0.2 1.1 0.6 0.5 0.4 0.9 0.9 0.3 0.5 0.5 1.1 0.2 0.6 0.2 1.2z"/><path className="e" d="m222.1 399.2q0.1-0.5 0.3-1.1 0.2-0.5 0.6-0.9 0.3-0.4 0.8-0.7 0.4-0.4 1-0.5c8.8-3.1 37-12.5 54.1-14.4 12.7-1.3 21.6 1.5 28 6.9 6.4-5.4 15.3-8.2 28-6.9 17.1 1.9 45.3 11.3 54.1 14.4q0.5 0.1 1 0.5 0.4 0.3 0.8 0.7 0.4 0.4 0.6 0.9 0.2 0.6 0.3 1.1z"/><path className="g" d="m399.7 392.3c0.7 0.8 1.1 1.8 1.1 2.8 0 1.1-0.4 2.1-1.1 2.9-0.8 0.7-1.8 1.2-2.9 1.2h-179.9c-1 0-2-0.5-2.8-1.2-0.7-0.8-1.1-1.8-1.1-2.9 0-1 0.4-2 1.1-2.8 0.8-0.8 1.8-1.2 2.8-1.2h179.9c1.1 0 2.1 0.4 2.9 1.2z"/><path className="c" d="m250.4 399.2h-31c-4.4 0-8-3.6-8-8 0-4.5 3.6-8.1 8-8.1h31c4.4 0 8 3.6 8 8.1 0 4.4-3.6 8-8 8z"/><path className="h" d="m250.3 399.2h-115.2c-9.7 0-19.1-3.6-25.9-10.4-11.8-11.8-13.6-29.8-5.5-43.5l58.7-98.6c5.8-9.7 18.3-12.9 28.1-7.1 9.7 5.8 12.9 18.4 7.1 28.1l-53.8 90.5h66.8c2.5 0 5 0.3 7.4 1 2.4 0.6 4.7 1.6 6.9 2.9 2.2 1.2 4.1 2.8 5.9 4.5 1.8 1.8 3.3 3.8 4.5 6z"/><path className="d" d="m174.5 318.6l-39.9-25.3 27.8-46.6c5.8-9.7 20.3-15 30.4-10 13 6.4 15 24.1 9.2 33.9z"/><path className="a" d="m195.1 239v-6.7h62.7v20.6c0 7.8-6.4 14.1-14.2 14.1q-0.7 0-1.4-0.1-0.8-0.1-1.5-0.2-0.7-0.2-1.4-0.4-0.7-0.2-1.4-0.5l-33-11.4-0.6-0.3c-5.7-3-9.2-8.8-9.2-15.1z"/><path className="a" d="m201 240.2l39.3 20.4-36.5 15.4c-4.2 1.7-8.7-1.3-8.7-5.8v-33.5z"/><path className="a" d="m257.8 232.3v38.5c0 4.1-4.2 6.8-7.9 5.3l-33.1-14 35.6-18.4z"/><path className="c" d="m248.3 175.5v77.4c0 3.5-3.7 5.7-6.9 4.1l-32.7-11.3c-2.6-1.3-4.2-3.9-4.2-6.7v-63.5h43.8z"/><path className="i" d="m256.5 147.3v-56.2c0-10 8.1-18.1 18.1-18.1 10 0 18.1 8.1 18.1 18.1v56.2c0 9.9-8.1 18.1-18.1 18.1-10 0-18.1-8.2-18.1-18.1z"/><path className="j" d="m262.6 147.3v-56.2c0-6.6 5.4-12 12-12 6.6 0 12 5.4 12 12v56.2c0 6.6-5.4 12-12 12-6.6 0-12-5.4-12-12z"/><path className="c" d="m304.3 158.4c-2.6 9.4-12.2 15-21.6 12.5-9.4-2.6-15-12.2-12.4-21.6 2.5-9.4 12.1-15 21.5-12.4 9.4 2.5 15 12.1 12.5 21.5z"/><path className="h" d="m236 80.6c31.2-0.5 56.7 24.7 56.7 55.8v58.1c0 17.1-13.9 30.9-31 30.9h-38.5c-24.2 0-43.9-19.6-43.9-43.9v-45.1c0-31.1 25.5-56.3 56.7-55.8z"/><path className="k" d="m266 188v7.6c0 9-7.3 16.3-16.3 16.3h-19c-8.9 0-16.2-7.3-16.2-16.3v-7.6q0-0.8 0.3-1.5 0.3-0.7 0.9-1.3 0.5-0.6 1.3-0.9 0.7-0.3 1.5-0.3h43.5q0.8 0 1.5 0.3 0.7 0.3 1.3 0.9 0.6 0.6 0.9 1.3 0.3 0.7 0.3 1.5z"/><path className="l" d="m241.1 207.7q0 2.2-0.4 4.2h-10c-8.9 0-16.2-7.3-16.2-16.3v-6c2.2-0.9 4.6-1.4 7.2-1.4 10.7 0 19.4 8.7 19.4 19.5z"/><path className="f" d="m218.5 184h41.6v6.9q0 0.7-0.3 1.3-0.3 0.7-0.8 1.2-0.5 0.5-1.1 0.7-0.7 0.3-1.4 0.3h-38.9q-0.6 0-1.2-0.2-0.6-0.3-1-0.7-0.4-0.5-0.7-1-0.2-0.6-0.2-1.3v-3.2q0-0.8 0.3-1.5 0.3-0.7 0.8-1.3 0.6-0.6 1.4-0.9 0.7-0.3 1.5-0.3z"/><path className="i" d="m251.2 167.1l26.3 10.5c1.4 0.6 1.8 2.4 0.8 3.5-4.6 5.5-12.5 7.5-19.5 4.7-6.9-2.8-11.2-9.6-10.7-16.8 0.1-1.5 1.6-2.5 3.1-1.9z"/><path className="m" d="m251.6 179.1l-1.2-1.1"/><path className="i" d="m253.9 169c0.5 7.2-3.8 14-10.7 16.8-7 2.8-14.9 0.8-19.5-4.7-1-1.1-0.6-2.9 0.8-3.5l26.3-10.5c1.5-0.6 3 0.4 3.1 1.9z"/><path className="c" d="m245.3 170.6q-0.9-0.3-1.5-1-0.6-0.6-1-1.5-0.3-0.8-0.3-1.7v-28.6q0-0.9 0.3-1.8 0.4-0.8 1-1.4 0.6-0.7 1.5-1 0.8-0.4 1.7-0.4h9.3q0.9 0 1.7 0.4 0.8 0.3 1.5 1 0.6 0.6 1 1.4 0.3 0.9 0.3 1.8v28.6q0 0.9-0.3 1.7-0.4 0.9-1 1.5-0.7 0.7-1.5 1-0.8 0.3-1.7 0.3h-9.3q-0.9 0-1.7-0.3z"/><path className="i" d="m251.2 115.4l-34 15.6c-3 1.6-6.7-0.6-6.7-4.1v-53.9h64.1l-11.3 8.1v14.2q0 3.1-0.9 6.1-0.8 3-2.4 5.6-1.6 2.7-3.8 4.8-2.2 2.1-5 3.6z"/><path className="i" d="m231.6 81.1v-16.1q0-0.7 0.3-1.3 0.3-0.6 0.9-1.1 0.5-0.4 1.2-0.5 0.7-0.2 1.4 0l45.1 11.9zm-52.2 21.2h21.6v40.5q0 1.4-0.5 2.6-0.5 1.3-1.5 2.2-1 1-2.2 1.5-1.3 0.5-2.6 0.5h-14.8c0 0 0-47.3 0-47.3z"/><path className="c" d="m169.5 149.3c2.4-9 11.3-14.4 20.3-12.7v34.5q-1 0.2-2 0.3-0.9 0.1-1.9 0-1 0-2-0.1-1-0.2-1.9-0.4c-9.4-2.6-15-12.2-12.5-21.6z"/><path className="i" d="m232.8 109l-46.8 24c-3.1 1.5-6.7-0.7-6.7-4.1v-34.5c0-11.8 9.6-21.4 21.5-21.4h43.4l-11.3 8.1c0 0-0.1 27.9-0.1 27.9z"/><path fill-rule="evenodd" className="j" d="m274.5 128.9q-0.5 0.1-1 0.1-0.5 0-1-0.2-0.4-0.2-0.8-0.5c-1.9-1.5-5.3-3.5-10.1-2.7-1.5 0.2-2.8-0.7-3.3-2.1l-1.4-4.4c-0.6-1.8 0.5-3.6 2.3-3.9 9.1-1.8 16.2 2.1 20.3 5.8 1.4 1.3 1.2 3.5-0.3 4.6l-3.9 2.8q-0.4 0.3-0.8 0.5zm-52.4 3.1l-3.8-2.9c-1.6-1.1-1.7-3.3-0.3-4.6 4-3.7 11.2-7.5 20.3-5.8 1.8 0.4 2.9 2.2 2.3 3.9l-1.5 4.5c-0.4 1.3-1.8 2.2-3.2 2-4.8-0.8-8.3 1.2-10.1 2.7q-0.4 0.4-0.9 0.5-0.4 0.2-0.9 0.2-0.5 0-1-0.1-0.5-0.2-0.9-0.4z"/><path className="a" d="m239.6 306.5h-13.8q-1 0-1.9-0.4-0.9-0.4-1.6-1.1-0.7-0.7-1.1-1.6-0.4-0.9-0.4-1.9v-41.8h23.7v41.8q0 1-0.3 1.9-0.4 0.9-1.1 1.6-0.7 0.7-1.6 1.1-0.9 0.4-1.9 0.4z"/><path className="d" d="m232.7 282.5c-2.5 0-4.6-2-4.6-4.5 0-2.6 2.1-4.6 4.6-4.6 2.5 0 4.6 2 4.6 4.6 0 2.5-2.1 4.5-4.6 4.5z"/><path className="d" d="m232.7 298.3c-2.5 0-4.6-2-4.6-4.6 0-2.5 2.1-4.5 4.6-4.5 2.5 0 4.6 2 4.6 4.5 0 2.6-2.1 4.6-4.6 4.6z"/><path className="n" d="m582.1 285.8l-63.1 113.4h-58.2l76.9-138.2c6.9-12.3 22.4-16.7 34.6-9.8 12.3 6.9 16.7 22.4 9.8 34.6z"/><path className="o" d="m652.6 173.3c-17.7 0-32-14.3-32-31.9 0-17.7 14.3-32 32-32 17.7 0 31.9 14.3 31.9 32 0 17.6-14.2 31.9-31.9 31.9z"/><path className="o" d="m603 129c-17.7 0-32-14.2-32-31.9 0-17.7 14.3-31.9 32-31.9 17.6 0 31.9 14.2 31.9 31.9 0 17.7-14.3 31.9-31.9 31.9z"/><path className="o" d="m640.4 138.2c-22.6 0-40.8-18.2-40.8-40.8 0-22.6 18.2-40.8 40.8-40.8 22.5 0 40.8 18.2 40.8 40.8 0 22.6-18.3 40.8-40.8 40.8z"/><path className="p" d="m623.9 141.9c-15.1 0-27.3-12.2-27.3-27.3 0-15.1 12.2-27.3 27.3-27.3 15.1 0 27.3 12.2 27.3 27.3 0 15.1-12.2 27.3-27.3 27.3z"/><path className="o" d="m520.4 176.6v-29.3c0-35.3 28.7-64 64-64 35.4 0 64.1 28.7 64.1 64v29.3z"/><path className="q" d="m625.6 158.1c9.7-2.6 19.6 3.1 22.3 12.6 2.6 9.5-3.2 19.3-12.9 21.8-9.7 2.6-19.7-3.1-22.3-12.6-2.6-9.5 3.2-19.3 12.9-21.8z"/><path className="c" d="m528.1 158.1c9.7-2.6 19.7 3.1 22.3 12.6 2.6 9.5-3.2 19.3-12.9 21.8-9.7 2.6-19.7-3.1-22.3-12.6-2.6-9.5 3.2-19.3 12.9-21.8z"/><path className="q" d="m528.1 158.1c9.7-2.6 19.7 3.1 22.3 12.6 2.6 9.5-3.2 19.3-12.9 21.8-9.7 2.6-19.7-3.1-22.3-12.6-2.6-9.5 3.2-19.3 12.9-21.8z"/><path className="p" d="m527.2 196c-3.7 0-6.7-2.9-6.7-6.5 0-3.6 3-6.5 6.7-6.5z"/><path className="n" d="m539.6 397.7q-1.1-0.5-1.9-1.3-0.9-0.9-1.3-2-0.5-1.1-0.5-2.3v-120.5c0-13.3 10.8-24 24-24h69.3c13.3 0 24 10.7 24 24v120.5q0 1.2-0.5 2.3-0.4 1.1-1.3 2-0.8 0.8-1.9 1.3-1.1 0.4-2.3 0.4h-105.3q-1.2 0-2.3-0.4z"/><path className="q" d="m613.8 195.4v60.1c0 2.7-1.5 5.1-3.9 6.4l-31.1 10.6c-2.9 1.6-6.5-0.5-6.5-3.8v-73.3c0 0 41.5 0 41.5 0z"/><path className="r" d="m578.9 97.1c28.4 0 51.7 23.3 51.7 51.7v41.6c0 28.4-23.3 51.7-51.7 51.7-28.5 0-51.7-23.3-51.7-51.7v-41.6c0-28.4 23.2-51.7 51.7-51.7z"/><path className="q" d="m564.1 189.2h-0.2c-3.8 0-7-3.2-7-7.1v-17.6c0-3.9 3.2-7 7-7h0.2c3.9 0 7 3.1 7 7v17.6c0 3.9-3.1 7.1-7 7.1z"/><path className="p" d="m630.6 196c-3.7 0-6.7-2.9-6.7-6.5 0-3.6 3-6.5 6.7-6.5 3.7 0 6.6 2.9 6.6 6.5 0 3.6-2.9 6.5-6.6 6.5z"/><path className="o" d="m535.2 121.2c5.4-16.5 25.4-27.9 43.7-27.9 28.4 0 51.7 27.1 51.7 55.5v18z"/><path className="q" d="m463.1 253.1c-0.5-1.7-0.4-3.5 0.3-5.1 0.7-1.6 2.1-2.8 3.7-3.4 1.6-0.6 3.4-0.6 5 0.2l36.3 16.7-5.6 12-36.3-16.7c-1.6-0.7-2.8-2.1-3.4-3.7z"/><path className="r" d="m488.7 247.7q-0.4-1.5-0.2-3 0.2-1.5 0.9-2.8 0.8-1.4 2-2.3 1.2-0.9 2.7-1.3 1.4-0.4 2.9-0.2 1.6 0.2 2.9 0.9 1.3 0.8 2.2 2l28.3 36.3-12.2 9.4-28.2-36.4q-0.9-1.2-1.3-2.6z"/><path className="r" d="m499.4 256.2l-4.5 27.4-13.6-17.1z"/><path className="s" d="m551.5 355.9q-3.5-0.3-6.8-1.3-3.4-1-6.4-2.7-3.1-1.7-5.8-3.9-2.6-2.3-4.8-5.1l-32.2-41.6c-8.5-10.9-6.5-26.6 4.4-35 10.9-8.5 26.6-6.5 35.1 4.4l21.3 27.6 55-50.8c10.1-9.4 25.9-8.7 35.3 1.4 9.3 10.1 8.7 25.9-1.4 35.3l-68 62.8c-6.3 5.8-14.5 9-22.9 9q-1.4 0-2.8-0.1z"/><path className="r" d="m458.4 268.3q-1.4-0.5-2.5-1.6-1.1-1.1-1.6-2.5-0.6-1.4-0.6-2.9 0-1.6 0.6-3 0.5-1.4 1.6-2.5 1.1-1 2.5-1.6 1.4-0.6 2.9-0.6h50.6v15.3h-50.6q-1.5 0-2.9-0.6z"/><path className="n" d="m493.5 282l-6.6-8.5 25-19.9 6.9 8.9c5.4 7 4.1 17-2.9 22.4q-1 0.8-2.2 1.4-1.1 0.6-2.4 1.1-1.2 0.4-2.5 0.6-1.3 0.2-2.6 0.2-1.9 0-3.6-0.4-1.8-0.4-3.5-1.2-1.6-0.8-3-2-1.5-1.1-2.6-2.6z"/><path className="t" d="m555.1 196.1q0.2-0.7 0.7-1.3 0.5-0.6 1.2-1 0.6-0.4 1.4-0.5l40.2-7.5q0.8-0.2 1.6 0 0.8 0.2 1.4 0.8 0.7 0.5 1 1.2 0.4 0.8 0.4 1.6v23.7c0 6.5-5.3 11.8-11.8 11.8h-24.6c-6.5 0-11.8-5.3-11.8-11.8v-15.5q0-0.7 0.3-1.5z"/><path className="u" d="m573.1 224.9c1.2-9.4 9-16.8 18.8-17.4q1.4-0.1 2.9 0.1 1.4 0.1 2.8 0.4 1.4 0.4 2.8 0.9 1.3 0.5 2.6 1.2v3c0 6.5-5.3 11.8-11.8 11.8 0 0-18.1 0-18.1 0z"/><path className="f" d="m600.2 185.8q0.8 0.2 1.4 0.8 0.7 0.5 1 1.2 0.4 0.8 0.4 1.6v10.7h-37.5q-0.7 0-1.4-0.2-0.6-0.3-1.2-0.8-0.5-0.6-0.8-1.2-0.2-0.7-0.2-1.4v-3.9l36.7-6.8q0.8-0.2 1.6 0z"/><path className="v" d="m536.4 148c-0.7-0.8-1.2-1.7-1.3-2.7-0.2-1 0-2 0.4-2.9 0.4-0.9 1.1-1.6 2-2.1 4.3-2.6 11.1-5.2 18.8-3.6 2.8 0.5 4.5 3.2 3.9 5.9q-0.2 1-0.7 1.8-0.6 0.8-1.4 1.4-0.9 0.5-1.8 0.7-1 0.2-2 0c-4.7-1-9 0.7-11.8 2.4q-0.4 0.2-0.8 0.4-0.5 0.1-0.9 0.2-0.5 0.1-1 0.1-0.4-0.1-0.9-0.2c-1-0.2-1.9-0.7-2.5-1.4z"/><path className="o" d="m626 129h11.2v28.5h-11.2z"/><path className="w" d="m590.9 177.6q-0.5 0-0.9-0.2-0.4-0.2-0.8-0.5-0.3-0.3-0.5-0.8-0.1-0.4-0.1-0.9v-4.7q-0.1-1.1-0.5-2.1-0.4-1-1.2-1.8-0.7-0.8-1.7-1.2-1.1-0.4-2.2-0.4-1 0-2.1 0.4-1 0.4-1.7 1.2-0.8 0.8-1.2 1.8-0.5 1-0.5 2.1v4.7c0 0.6-0.2 1.2-0.7 1.7-0.4 0.4-1 0.6-1.6 0.6-0.6 0-1.2-0.2-1.7-0.6-0.4-0.5-0.7-1.1-0.7-1.7v-4.7c0-5.6 4.6-10.2 10.2-10.2 5.7 0 10.3 4.6 10.3 10.2v4.7q0 0.5-0.2 0.9-0.2 0.5-0.5 0.8-0.3 0.3-0.8 0.5-0.4 0.2-0.9 0.2zm-36.4 0q-0.4 0-0.9-0.2-0.4-0.2-0.7-0.5-0.4-0.3-0.6-0.8-0.1-0.4-0.1-0.9v-4.7q0-1.1-0.5-2.1-0.4-1-1.2-1.8-0.7-0.8-1.7-1.2-1-0.4-2.1-0.4-1.1 0-2.2 0.4-1 0.4-1.7 1.2-0.8 0.8-1.2 1.8-0.4 1-0.5 2.1v4.7c0 0.6-0.2 1.2-0.6 1.7-0.5 0.4-1.1 0.7-1.7 0.7-0.6 0-1.2-0.3-1.7-0.7-0.4-0.5-0.7-1.1-0.7-1.7v-4.7c0-5.6 4.6-10.2 10.3-10.2 5.6 0 10.2 4.6 10.2 10.2v4.7q0 0.5-0.2 0.9-0.2 0.5-0.5 0.8-0.3 0.3-0.8 0.5-0.4 0.2-0.9 0.2z"/><path className="e" d="m675.2 380.2q0.6 0.2 1.1 0.6 0.5 0.4 0.8 0.9 0.4 0.5 0.6 1.1 0.2 0.6 0.2 1.2v7.1h-169.7v-7.1q0-0.6 0.2-1.2 0.2-0.6 0.6-1.1 0.3-0.5 0.8-0.9 0.5-0.4 1.1-0.6c8.8-3 37-12.4 54.2-14.3 12.6-1.3 21.6 1.5 28 6.9 6.4-5.4 15.3-8.2 27.9-6.9 17.2 1.9 45.4 11.3 54.2 14.3z"/><path className="f" d="m677.9 399.2h-169.7v-6.9q0-0.6 0.2-1.2 0.2-0.6 0.6-1.1 0.3-0.5 0.8-0.9 0.5-0.4 1.1-0.6c8.8-3 37-12.4 54.2-14.3 12.6-1.4 21.6 1.5 28 6.9 6.4-5.4 15.3-8.3 27.9-6.9 17.2 1.9 45.4 11.3 54.2 14.3q0.6 0.2 1.1 0.6 0.5 0.4 0.8 0.9 0.4 0.5 0.6 1.1 0.2 0.6 0.2 1.2z"/><path className="e" d="m508.3 399.2q0-0.5 0.3-1.1 0.2-0.5 0.5-0.9 0.4-0.4 0.9-0.7 0.4-0.4 0.9-0.5c8.8-3.1 37-12.5 54.2-14.4 12.6-1.3 21.6 1.5 28 6.9 6.4-5.4 15.3-8.2 27.9-6.9 17.2 1.9 45.4 11.3 54.2 14.4q0.5 0.1 1 0.5 0.4 0.3 0.8 0.7 0.3 0.4 0.5 0.9 0.3 0.6 0.3 1.1z"/><path className="u" d="m685.8 392.3c0.8 0.8 1.2 1.8 1.2 2.8 0 1.1-0.4 2.1-1.2 2.9-0.7 0.7-1.7 1.2-2.8 1.2h-179.9c-1.1 0-2.1-0.5-2.8-1.2-0.8-0.8-1.2-1.8-1.2-2.9 0-1 0.4-2 1.2-2.8 0.7-0.8 1.7-1.2 2.8-1.2h179.9c1.1 0 2.1 0.4 2.8 1.2z"/><path className="q" d="m493.6 390.3c0 4.9-4 8.9-8.9 8.9h-44.6c-4.9 0-8.9-4-8.9-8.9 0-5 4-9 8.9-9h44.6c4.9 0 8.9 4 8.9 9z"/><path className="q" d="m491 396.5c-3.4 3.5-9.1 3.5-12.6 0l-17.8-17.8c-3.5-3.4-3.5-9.1 0-12.6 3.5-3.5 9.2-3.5 12.7 0l17.7 17.8c3.5 3.5 3.5 9.1 0 12.6z"/><path className="x" d="m717.4 425.8h-637.5c-7.4 0-13.3-6-13.3-13.3 0-7.4 5.9-13.3 13.3-13.3h637.5c7.4 0 13.3 5.9 13.3 13.3 0 7.3-5.9 13.3-13.3 13.3z"/><path className="b" d="m236.3 154.6q-0.4 0-0.9-0.2-0.4-0.2-0.7-0.5-0.4-0.4-0.6-0.8-0.1-0.4-0.1-0.9v-4.7q0-1.1-0.5-2.1-0.4-1-1.2-1.8-0.7-0.8-1.7-1.2-1.1-0.4-2.1-0.4-1.1 0-2.2 0.4-1 0.4-1.7 1.2-0.8 0.8-1.2 1.8-0.5 1-0.5 2.1v4.7c0 0.6-0.2 1.2-0.7 1.6-0.4 0.5-1 0.7-1.6 0.7-0.6 0-1.2-0.2-1.7-0.7-0.4-0.4-0.7-1-0.7-1.6v-4.7c0-5.7 4.6-10.3 10.3-10.3 5.6 0 10.2 4.6 10.2 10.3v4.7q0 0.5-0.2 0.9-0.2 0.4-0.5 0.8-0.3 0.3-0.8 0.5-0.4 0.2-0.9 0.2zm42.5 0q-0.4 0-0.9-0.2-0.4-0.2-0.7-0.5-0.4-0.4-0.5-0.8-0.2-0.4-0.2-0.9v-4.7q0-1.1-0.4-2.1-0.5-1-1.2-1.8-0.8-0.8-1.8-1.2-1-0.4-2.1-0.4-1.1 0-2.1 0.4-1 0.4-1.8 1.2-0.8 0.8-1.2 1.8-0.4 1-0.4 2.1v4.7c0 0.6-0.3 1.2-0.7 1.7-0.5 0.4-1.1 0.7-1.7 0.7-0.6 0-1.2-0.3-1.7-0.7-0.4-0.5-0.7-1.1-0.7-1.7v-4.7c0-5.7 4.6-10.3 10.3-10.3 5.6 0 10.2 4.6 10.2 10.3v4.7q0 0.5-0.2 0.9-0.1 0.4-0.5 0.8-0.3 0.3-0.7 0.5-0.5 0.2-1 0.2z"/><path className="y" d="m237.7 160.3q-6.8 6.5-15.9 6.5"/><path className="y" d="m260.8 160.3q6.8 6.5 15.9 6.5"/><path className="z" d="m410.5 49.5c9 8.7 14.4 19.9 16 31.5 18.9-3.3 39 2.5 53.3 17.3 20.1 20.7 22 52.4 6.1 75.4l6.8 20v0.2c0.6 2.4-1.7 4.5-4.1 3.7l-19.6-7.5c-23.6 15.3-55.3 12.4-75.5-8.5-10.3-10.7-15.8-24.3-16.6-38.1-11.9 1.1-24.1-1.7-34.5-8.4l-18 7q-0.7 0.3-1.5 0.1-0.8-0.2-1.4-0.7-0.6-0.5-0.8-1.3-0.2-0.8 0-1.5v-0.2l6.4-18.3c-14.4-20.9-12.5-49.9 6-69.1 21.1-21.8 55.7-22.5 77.4-1.6z"/><path fill-rule="evenodd" className="A" d="m413.7 114h45.2c4.4 0 6 0.5 7.6 1.3q0.6 0.3 1.1 0.7 0.5 0.4 1 0.9 0.5 0.5 0.9 1 0.4 0.6 0.7 1.2c0.9 1.6 1.3 3.2 1.3 7.6v29c0 4.4-0.4 6-1.3 7.7q-0.3 0.5-0.7 1.1-0.4 0.5-0.9 1-0.5 0.5-1 0.9-0.5 0.4-1.1 0.7c-1.6 0.8-3.2 1.3-7.6 1.3h-45.2c-4.4 0-6-0.5-7.6-1.3q-0.6-0.3-1.2-0.7-0.5-0.4-1-0.9-0.5-0.5-0.9-1-0.4-0.6-0.7-1.1c-0.8-1.7-1.3-3.3-1.3-7.7v-29c0-4.4 0.5-6 1.3-7.6q0.3-0.6 0.7-1.2 0.4-0.5 0.9-1 0.5-0.5 1-0.9 0.6-0.4 1.2-0.7c1.6-0.8 3.2-1.3 7.6-1.3z"/><path fill-rule="evenodd" className="B" d="m401 129.5h70.5v23.4h-70.5z"/><path fill-rule="evenodd" className="f" d="m428.4 135.4c1.1 0 2 0.8 2 1.9v7.8c0 0.5-0.2 1-0.6 1.4-0.4 0.3-0.9 0.5-1.4 0.5-0.5 0-1-0.2-1.4-0.5-0.3-0.4-0.5-0.9-0.5-1.4v-7.8c0-1.1 0.8-1.9 1.9-1.9zm-21.5 1.9v7.8c0 0.5 0.2 1 0.6 1.4 0.3 0.3 0.8 0.5 1.3 0.5 0.6 0 1.1-0.2 1.4-0.5 0.4-0.4 0.6-0.9 0.6-1.4v-7.8c0-1.1-0.9-1.9-2-1.9-1 0-1.9 0.8-1.9 1.9z"/><path fill-rule="evenodd" className="A" d="m414.5 133.4h8.2c1 0 1.8 0.8 1.8 1.8v7.9c0 1.6-0.6 3.1-1.7 4.2-1.1 1.1-2.6 1.7-4.2 1.7-1.5 0-3-0.6-4.1-1.7-1.1-1.1-1.7-2.6-1.7-4.2v-7.9c0-1 0.7-1.8 1.7-1.8z"/><path fill-rule="evenodd" className="A" d="m353.5 70h33.9c3.3 0 4.5 0.3 5.7 1q0.4 0.2 0.9 0.5 0.4 0.3 0.7 0.7 0.4 0.3 0.7 0.7 0.3 0.4 0.5 0.9c0.6 1.2 1 2.4 1 5.7v21.8c0 3.3-0.4 4.5-1 5.7q-0.2 0.5-0.5 0.9-0.3 0.4-0.7 0.7-0.3 0.4-0.7 0.7-0.5 0.3-0.9 0.5c-1.2 0.7-2.4 1-5.7 1h-33.9c-3.3 0-4.5-0.3-5.7-1q-0.5-0.2-0.9-0.5-0.4-0.3-0.7-0.7-0.4-0.3-0.7-0.7-0.3-0.4-0.5-0.9c-0.7-1.2-1-2.4-1-5.7v-21.8c0-3.3 0.3-4.5 1-5.7q0.2-0.5 0.5-0.9 0.3-0.4 0.7-0.7 0.3-0.4 0.7-0.7 0.4-0.3 0.9-0.5c1.2-0.7 2.4-1 5.7-1z"/><path fill-rule="evenodd" className="B" d="m344 81.7h52.9v17.4h-52.9z"/><path fill-rule="evenodd" className="f" d="m364.6 86c0.8 0 1.4 0.7 1.4 1.5v5.8c0 0.4-0.1 0.8-0.4 1-0.3 0.3-0.6 0.5-1 0.5-0.4 0-0.8-0.2-1.1-0.5-0.2-0.2-0.4-0.6-0.4-1v-5.8c0-0.8 0.7-1.5 1.5-1.5zm-14.7 0c0.8 0 1.4 0.7 1.4 1.5v5.8c0 0.4-0.1 0.8-0.4 1-0.3 0.3-0.6 0.5-1 0.5-0.4 0-0.8-0.2-1.1-0.5-0.2-0.2-0.4-0.6-0.4-1v-5.8c0-0.8 0.7-1.5 1.5-1.5z"/><path fill-rule="evenodd" className="A" d="m354.1 84.6h6.2c0.7 0 1.3 0.6 1.3 1.3v5.9c0 1.2-0.4 2.3-1.2 3.2-0.9 0.8-2 1.3-3.2 1.3-1.2 0-2.3-0.5-3.1-1.3-0.8-0.9-1.3-2-1.3-3.2v-5.9c0-0.7 0.6-1.3 1.3-1.3z"/></svg>