<svg version="1.2" xmlns="http://www.w3.org/2000/svg" viewBox="0 0 800 456" width="800" height="456"><defs><clipPath clipPathUnits="userSpaceOnUse" id="cp1"><path d="m582.01 352.99v70.3c0 6.56-5.32 11.88-11.88 11.88h-339.58c-21.19 0-38.36-17.17-38.36-38.35v-17.36c0-21.18 17.17-38.35 38.36-38.35h339.58c6.56 0 11.88 5.32 11.88 11.88z"/></clipPath><clipPath clipPathUnits="userSpaceOnUse" id="cp2"><path d="m238.81 105.97l56.75 31.45q1.26 0.71 2.16 1.83 0.89 1.14 1.29 2.52 0.4 1.39 0.24 2.82-0.17 1.44-0.87 2.7l-31.93 57.61c-3.33 6.01-10.9 8.18-16.91 4.85l-47.68-26.43c-6.01-3.33-8.18-10.9-4.85-16.91l31.93-57.61q0.7-1.26 1.83-2.16 1.13-0.9 2.52-1.3 1.39-0.39 2.82-0.23 1.43 0.16 2.7 0.86z"/></clipPath><clipPath clipPathUnits="userSpaceOnUse" id="cp3"><path d="m227.23 124.81c8.95-16.15 29.3-21.98 45.45-13.03 16.15 8.95 21.98 29.3 13.03 45.44l-9.07 16.36c-8.95 16.15-29.3 21.99-45.44 13.04-16.15-8.96-21.99-29.3-13.04-45.45z"/></clipPath><clipPath clipPathUnits="userSpaceOnUse" id="cp4"><path d="m227.23 124.81c8.95-16.15 29.3-21.98 45.45-13.03 16.15 8.95 21.98 29.3 13.03 45.44l-9.07 16.36c-8.95 16.15-29.3 21.99-45.44 13.04-16.15-8.96-21.99-29.3-13.04-45.45z"/></clipPath><clipPath clipPathUnits="userSpaceOnUse" id="cp5"><path d="m227.23 124.81c8.95-16.15 29.3-21.98 45.45-13.03 16.15 8.95 21.98 29.3 13.03 45.44l-9.07 16.36c-8.95 16.15-29.3 21.99-45.44 13.04-16.15-8.96-21.99-29.3-13.04-45.45z"/></clipPath><clipPath clipPathUnits="userSpaceOnUse" id="cp6"><path d="m238.81 105.97l56.75 31.45q1.26 0.71 2.16 1.83 0.89 1.14 1.29 2.52 0.4 1.39 0.24 2.82-0.17 1.44-0.87 2.7l-31.93 57.61c-3.33 6.01-10.9 8.18-16.91 4.85l-47.68-26.43c-6.01-3.33-8.18-10.9-4.85-16.91l31.93-57.61q0.7-1.26 1.83-2.16 1.13-0.9 2.52-1.3 1.39-0.39 2.82-0.23 1.43 0.16 2.7 0.86z"/></clipPath></defs><style>.a{fill:#e5a259}.b{fill:none;stroke:#df933f;stroke-linecap:round;stroke-width:11.8}.c{fill:#ffce8e}.d{opacity:.4;fill:none;stroke:#e5a259;stroke-width:7.8}.e{fill:#78c800}.f{fill:#a56644;stroke:#a56644;stroke-linecap:round;stroke-linejoin:round;stroke-width:5.2}.g{fill:#a56644}.h{fill:#bb7149;stroke:#bb7149;stroke-linecap:round;stroke-linejoin:round;stroke-width:6.7}.i{fill:#ff4b4b}.j{fill:none;stroke:#854c2d;stroke-linecap:round;stroke-width:3.6}.k{fill:#bb7149}.l{fill:#4b4b4b}.m{fill:#bbf2ff}.n{fill:#ff9600}.o{opacity:.8;fill:#ffaf3f}.p{fill:#ffba5c}.q{opacity:.3;fill:#ffe6c6}.r{fill:none;stroke:#bbf2ff;stroke-width:11.2}</style><path fill-rule="evenodd" class="a" d="m582 353v70.3c0 6.6-5.3 11.9-11.9 11.9h-339.6c-21.1 0-38.3-17.2-38.3-38.4v-17.3c0-21.2 17.2-38.4 38.3-38.4h339.6c6.6 0 11.9 5.3 11.9 11.9z"/><g clip-path="url(#cp1)"><path class="b" d="m-28.1 369.2h75.6"/><path class="b" d="m23.9 392.5h78.6"/><path class="b" d="m393.3 374.3h78.6"/><path class="b" d="m481.9 412h78.6"/><path class="b" d="m513.3 392.5h59"/><path class="b" d="m264.9 412h96.6"/><path class="b" d="m178.3 374.5h59"/></g><path class="c" d="m609.8 401c0 17.2-14 31.2-31.2 31.2-17.3 0-31.2-14-31.2-31.2v-28.7c0-17.2 13.9-31.2 31.2-31.2 17.2 0 31.2 14 31.2 31.2z"/><path class="d" d="m594 401.1c0 8.6-6.9 15.5-15.4 15.5-8.6 0-15.5-6.9-15.5-15.5v-28.9c0-8.5 6.9-15.5 15.5-15.5 8.5 0 15.4 7 15.4 15.5z"/><path fill-rule="evenodd" class="e" d="m157.2 430.8h485c2.1 0 4.1 0.9 5.6 2.4 1.5 1.5 2.4 3.5 2.4 5.6 0 2.1-0.9 4.1-2.4 5.6-1.5 1.5-3.5 2.3-5.6 2.3h-485c-2.1 0-4.1-0.8-5.6-2.3-1.5-1.5-2.3-3.5-2.3-5.6 0-2.1 0.8-4.1 2.3-5.6 1.5-1.5 3.5-2.4 5.6-2.4z"/><path fill-rule="evenodd" class="f" d="m478.2 247l3.3-37.4c7.5 3.3 12.5 11.2 11.7 19.8-0.8 8.7-7 15.6-15 17.6z"/><path class="g" d="m329 210.4c11.4 8.8 13.4 25.2 4.5 36.6l-5.3 6.8c-8.9 11.4-25.3 13.4-36.6 4.5l-47.8-37.3c-11.3-8.9-13.3-25.3-4.5-36.6l5.3-6.8c8.9-11.4 25.3-13.4 36.7-4.5z"/><path fill-rule="evenodd" class="g" d="m472 62.9l22.4 142.3-5.9 125.4q0 0.1 0 0.3 0 0.1 0 0.3 0 0.2 0 0.3 0 0.2-0.1 0.3c-1.8 23.8-22.5 41.6-46.3 39.8l-127.9-9.8q-2-0.1-4-0.5-1.9-0.3-3.9-0.8-1.9-0.5-3.8-1.2-1.9-0.7-3.7-1.6c-21.5-10.4-30.6-36.2-20.2-57.7l45.6-94.8 22.4-142.3c3.3-21.1 21.4-36.5 42.7-36.5h40.1c21.2 0 39.3 15.4 42.6 36.5z"/><path fill-rule="evenodd" class="g" d="m481.9 24.2c0.5 1.1 0.8 2.3 0.9 3.6 0 1.2-0.2 2.4-0.6 3.5-0.4 1.2-1 2.3-1.8 3.2l-2.6 2.9c-0.8 0.9-1.8 1.6-2.9 2.1-1.1 0.5-2.3 0.8-3.5 0.9-1.3 0.1-2.5-0.1-3.6-0.5-1.2-0.4-2.2-1-3.1-1.9-0.9-0.8-1.7-1.8-2.2-2.9-0.5-1.1-0.8-2.3-0.9-3.5-0.1-1.2 0.1-2.4 0.5-3.6 0.4-1.1 1.1-2.2 1.9-3.1l2.6-2.9c0.8-0.9 1.8-1.6 2.9-2.1 1.1-0.6 2.3-0.9 3.5-0.9 1.2-0.1 2.4 0.1 3.6 0.5 1.1 0.4 2.2 1 3.1 1.8 0.9 0.9 1.6 1.8 2.2 2.9zm-145.7 0c-0.5 1.1-0.8 2.3-0.9 3.6-0.1 1.2 0.1 2.4 0.5 3.5 0.4 1.2 1 2.3 1.9 3.2l2.6 2.9c0.8 0.9 1.8 1.6 2.9 2.1 1.1 0.5 2.3 0.8 3.5 0.9 1.2 0.1 2.4-0.1 3.6-0.5 1.1-0.4 2.2-1 3.1-1.9 0.9-0.8 1.6-1.8 2.1-2.9 0.6-1.1 0.9-2.3 0.9-3.5 0.1-1.2-0.1-2.4-0.5-3.6-0.4-1.1-1-2.2-1.8-3.1l-2.6-2.9c-0.9-0.9-1.8-1.6-2.9-2.1-1.1-0.6-2.3-0.9-3.6-0.9-1.2-0.1-2.4 0.1-3.5 0.5-1.2 0.4-2.2 1-3.2 1.8-0.9 0.9-1.6 1.8-2.1 2.9z"/><path fill-rule="evenodd" class="h" d="m393.2 261.8l-34.6-34.7c9.6-4.7 21.6-3 29.7 5 8 8 9.7 20 4.9 29.7z"/><path fill-rule="evenodd" class="h" d="m381.5 232.1c8.1-8 20.1-9.7 29.7-5l-34.6 34.7c-4.8-9.7-3.1-21.7 4.9-29.7z"/><path fill-rule="evenodd" class="h" d="m395.3 241.9c5.8-1.5 11.7 0.7 14.9 5.2l-25.2 6.8c0.5-5.5 4.5-10.4 10.3-12zm-21.4 0c-5.8-1.5-11.7 0.7-14.9 5.2l25.2 6.8c-0.5-5.5-4.5-10.4-10.3-12z"/><path class="g" d="m527.3 326.7c0.7 2.8-0.9 5.6-3.7 6.4l-40 10.7c-2.8 0.7-5.6-0.9-6.4-3.7l-27.1-101.2c-0.7-2.8 0.9-5.6 3.7-6.4l40-10.7c2.8-0.7 5.6 0.9 6.4 3.7z"/><path fill-rule="evenodd" class="g" d="m538 323.8v4.5c0 7.2-5.8 13-13 13h-47.7c-7.2 0-13.1-5.8-13.1-13v-9c0-7.3 5.9-13.1 13.1-13.1h43.2c9.7 0 17.5 7.9 17.5 17.6z"/><path fill-rule="evenodd" class="i" d="m496.4 184.7q0.9 0.4 1.5 1 0.7 0.6 1.1 1.4 0.4 0.7 0.6 1.6l5.2 34.2q0.2 1.2-0.2 2.3-0.3 1.2-1.1 2-0.9 0.9-2 1.3-1.1 0.5-2.3 0.3l-182.3-17.9c-1.1-0.1-2-0.5-2.8-1.1-0.8-0.7-1.4-1.6-1.7-2.5-0.3-1-0.3-2.1 0-3.1 0.3-1 0.9-1.8 1.7-2.5l5.2-4.2 3.1-17.4q0.2-1 0.7-1.8 0.5-0.8 1.2-1.4 0.8-0.6 1.7-0.9 0.9-0.3 1.8-0.2l166.9 8.5q0.9 0.1 1.7 0.4z"/><path fill-rule="evenodd" class="i" d="m443.8 176.5q1.3 0.6 2.3 1.7 1.1 1.1 1.6 2.5 0.5 1.3 0.6 2.8v111c0 1.1-0.3 2.1-0.7 3.1-0.4 1-1 1.9-1.8 2.6-0.8 0.7-1.7 1.3-2.7 1.6-1 0.4-2.1 0.6-3.1 0.5l-25.6-1.7q-1.5-0.1-2.8-0.7-1.3-0.7-2.4-1.7-1-1.1-1.5-2.5-0.6-1.4-0.6-2.8l-0.3-111c0-1.1 0.2-2.2 0.6-3.1 0.4-1 1.1-1.9 1.8-2.6 0.8-0.8 1.7-1.3 2.7-1.7 1-0.3 2.1-0.5 3.2-0.4l25.9 1.7q1.5 0.1 2.8 0.7z"/><path class="g" d="m328.4 400.8c-5.7 7.5-16.4 9-24 3.3l-14.1-10.6c-7.5-5.7-9-16.4-3.3-23.9l30.3-40.3c5.7-7.5 16.4-9 24-3.3l14 10.6c7.6 5.7 9.1 16.4 3.4 23.9z"/><path class="g" d="m393.5 409.8c-5.7 7.5-16.4 9-23.9 3.3l-14.1-10.6c-7.6-5.7-9.1-16.4-3.4-23.9l30.4-40.3c5.6-7.5 16.4-9 23.9-3.3l14.1 10.6c7.5 5.7 9 16.4 3.4 23.9z"/><path class="j" d="m386.8 68.1v4.7c0 4.9-3.4 8.9-7.6 8.9-4.3 0-7.7-4-7.7-8.9v-4.7"/><path class="j" d="m410.4 68.1v4.7c0 4.9-3.7 8.9-8.3 8.9-4.5 0-8.2-4-8.2-8.9v-4.7"/><path fill-rule="evenodd" class="a" d="m398.7 105.2v40.2c0 9.7-7.8 17.5-17.5 17.5-9.6 0-17.5-7.8-17.5-17.5v-40.2c0-9.7 7.9-17.5 17.5-17.5 9.7 0 17.5 7.8 17.5 17.5z"/><path fill-rule="evenodd" class="a" d="m362.8 112.4c1.2 0.5 2.2 1.2 3.1 2.1 0.9 0.9 1.6 2 2.1 3.1 0.5 1.2 0.7 2.4 0.7 3.7v8c0 2.5-1 5-2.8 6.8-1.8 1.8-4.2 2.8-6.8 2.8-2.5 0-5-1-6.8-2.8-1.8-1.8-2.8-4.3-2.8-6.8v-8c0-1.3 0.3-2.5 0.8-3.7 0.4-1.1 1.1-2.2 2-3.1 0.9-0.9 2-1.6 3.1-2.1 1.2-0.4 2.5-0.7 3.7-0.7 1.3 0 2.5 0.3 3.7 0.7z"/><path fill-rule="evenodd" class="k" d="m361 118.1q0.8 0.3 1.5 1 0.7 0.7 1.1 1.6 0.3 0.9 0.3 1.8v5.6c0 1.3-0.5 2.5-1.4 3.4-0.9 0.9-2.1 1.4-3.4 1.4-1.3 0-2.5-0.5-3.4-1.4-0.9-0.9-1.4-2.1-1.4-3.4v-5.6q0-0.9 0.4-1.8 0.4-0.9 1-1.6 0.7-0.7 1.6-1 0.9-0.4 1.8-0.4 1 0 1.9 0.4z"/><path fill-rule="evenodd" class="l" d="m383 89.6c1.2 1.2 1.9 2.9 1.9 4.6 0 1.7-0.7 3.4-1.9 4.6-1.2 1.2-2.9 1.9-4.6 1.9h-4.7c-1.7 0-3.4-0.7-4.6-1.9-1.2-1.2-1.9-2.9-1.9-4.6 0-1.7 0.7-3.4 1.9-4.6 1.2-1.2 2.9-1.9 4.6-1.9h4.7c1.7 0 3.4 0.7 4.6 1.9z"/><path class="g" d="m218.8 191.5c4.1-8 13.8-11.2 21.8-7.1l18.2 9.2c7.9 4.1 11.1 13.9 7 21.8-4 8-13.8 11.2-21.7 7.1l-18.2-9.3c-8-4-11.2-13.8-7.1-21.7z"/><path class="m" d="m238.8 106l56.8 31.4q1.2 0.7 2.1 1.9 0.9 1.1 1.3 2.5 0.4 1.4 0.2 2.8-0.1 1.4-0.8 2.7l-31.9 57.6c-3.4 6-11 8.2-17 4.8l-47.6-26.4c-6.1-3.3-8.2-10.9-4.9-16.9l31.9-57.6q0.7-1.3 1.9-2.2 1.1-0.9 2.5-1.3 1.4-0.4 2.8-0.2 1.4 0.2 2.7 0.9z"/><g clip-path="url(#cp2)"><path class="n" d="m227.2 124.8c9-16.1 29.3-22 45.5-13 16.1 8.9 22 29.3 13 45.4l-9.1 16.4c-8.9 16.1-29.3 22-45.4 13-16.2-8.9-22-29.3-13-45.4z"/><g clip-path="url(#cp3)"><path class="o" d="m234 176.1c-2.7-1.5-3.7-5-2.2-7.8 1.5-2.8 5-3.8 7.8-2.3 2.8 1.6 3.8 5.1 2.3 7.9-1.6 2.8-5.1 3.8-7.9 2.2z"/></g><g clip-path="url(#cp4)"><path class="o" d="m228.9 152.7c-1.7-1-2.4-3.2-1.4-4.9 1-1.7 3.2-2.4 4.9-1.4 1.7 1 2.4 3.2 1.4 4.9-1 1.7-3.1 2.4-4.9 1.4z"/></g><g clip-path="url(#cp5)"><path class="p" d="m232.2 112l74.1 41.1q1.2 0.7 2.1 1.8 0.8 1 1.2 2.4 0.4 1.3 0.2 2.6-0.1 1.4-0.8 2.6l-1.4 2.6q-0.7 1.2-1.8 2.1-1.1 0.8-2.4 1.2-1.3 0.4-2.7 0.3-1.3-0.2-2.5-0.9l-74.1-41q-1.2-0.7-2.1-1.8-0.8-1.1-1.2-2.4-0.4-1.3-0.3-2.7 0.2-1.3 0.9-2.5l1.4-2.7q0.7-1.2 1.8-2 1-0.9 2.4-1.3 1.3-0.3 2.7-0.2 1.3 0.2 2.5 0.8z"/></g></g><g clip-path="url(#cp6)"><path class="q" d="m276.7 134.7c1.5-2.8 5-3.8 7.8-2.2 2.8 1.5 3.8 5 2.2 7.8l-20.4 36.8c-1.5 2.8-5 3.8-7.8 2.3-2.8-1.6-3.8-5.1-2.2-7.8z"/></g><path class="c" d="m228 97.6c3.7-6.7 12.2-9.1 18.9-5.4l55.1 30.6c6.8 3.7 9.2 12.2 5.5 18.9-3.8 6.7-12.2 9.2-19 5.4l-55.1-30.5c-6.7-3.8-9.2-12.2-5.4-19z"/><path class="c" d="m244.5 122c0-6 4.8-10.8 10.8-10.8 6 0 10.8 4.8 10.8 10.8v2.4c0 6-4.8 10.8-10.8 10.8-6 0-10.8-4.8-10.8-10.8z"/><path class="c" d="m247.4 96.1c3.6-6.6 11.8-8.9 18.4-5.3l23.4 13c6.5 3.6 8.9 11.8 5.2 18.4-3.6 6.5-11.8 8.9-18.3 5.2l-23.5-12.9c-6.5-3.7-8.9-11.9-5.2-18.4z"/><path class="r" d="m200.4 163.6c-11.1-6.2-15.3-19.9-9.4-30.6 6-10.7 19.8-14.4 30.9-8.2"/><path class="g" d="m266.3 176.5c1.2-7.9 8.6-13.2 16.5-12l2.3 0.4c7.9 1.2 13.3 8.6 12 16.5-1.2 7.8-8.6 13.2-16.5 11.9l-2.3-0.3c-7.9-1.3-13.3-8.7-12-16.5z"/></svg>